<?xml version="1.0" encoding="utf-8"?>
<!-- Generator: Adobe Illustrator 23.1.1, SVG Export Plug-In . SVG Version: 6.00 Build 0)  -->
<svg version="1.1" id="Layer_1" xmlns="http://www.w3.org/2000/svg" xmlns:xlink="http://www.w3.org/1999/xlink" x="0px" y="0px"
     viewBox="0 0 273 75" style="enable-background:new 0 0 273 75;" xml:space="preserve">
<style type="text/css">
    .st0{fill:#FCF6EF;}
    .st1{fill-rule:evenodd;clip-rule:evenodd;fill:#FCF6EF;}
    .st2{fill-rule:evenodd;clip-rule:evenodd;fill:url(#SVGID_1_);}
</style>
<title>logo@4x</title>
<desc>Created with Sketch.</desc>
<g>
    <path class="st0" d="M9,67.8h3c0.6,0,1.1,0.1,1.7,0.3c0.5,0.2,0.9,0.4,1.3,0.7c0.4,0.3,0.7,0.7,0.9,1.1c0.2,0.5,0.3,1,0.3,1.5
        c0,0.5-0.1,1-0.3,1.5c-0.2,0.4-0.5,0.8-0.9,1.1c-0.4,0.3-0.8,0.6-1.3,0.8c-0.5,0.2-1.1,0.3-1.7,0.3H9V67.8z M12.1,73.6
        c0.3,0,0.7,0,1-0.2c0.3-0.1,0.5-0.2,0.7-0.4c0.2-0.2,0.4-0.4,0.5-0.7c0.1-0.3,0.2-0.6,0.2-0.9c0-0.3-0.1-0.6-0.2-0.9
        c-0.1-0.3-0.3-0.5-0.5-0.7c-0.2-0.2-0.5-0.4-0.7-0.4c-0.3-0.1-0.6-0.2-1-0.2h-1.3v4.4L12.1,73.6z"/>
    <polygon class="st1" points="18.9,67.8 24.3,67.8 24.3,69.2 20.5,69.2 20.5,70.6 23.8,70.6 23.8,72.1 20.5,72.1 20.5,73.6 
        24.3,73.6 24.3,75 18.9,75     "/>
    <polygon class="st1" points="28.8,67.8 34.2,67.8 34.2,69.2 30.4,69.2 30.4,70.6 33.7,70.6 33.7,72.1 30.4,72.1 30.4,73.6 
        34.2,73.6 34.2,75 28.8,75     "/>
    <path class="st0" d="M38.7,67.8h2.8c0.4,0,0.7,0.1,1.1,0.2c0.3,0.1,0.6,0.3,0.8,0.5c0.2,0.2,0.4,0.5,0.5,0.8c0.1,0.3,0.2,0.7,0.2,1
        c0,0.4-0.1,0.8-0.2,1.1c-0.1,0.3-0.3,0.6-0.6,0.8c-0.3,0.2-0.6,0.4-0.9,0.5c-0.4,0.1-0.7,0.2-1.1,0.2h-1.1V75h-1.5V67.8z
         M41.4,71.4c0.3,0,0.6-0.1,0.9-0.3c0.2-0.2,0.3-0.5,0.3-0.8c0-0.3-0.1-0.6-0.3-0.8c-0.3-0.2-0.6-0.3-0.9-0.3h-1.2v2.2H41.4z"/>
    <polygon class="st1" points="54.1,67.8 55.6,67.8 55.6,70.9 58.4,67.8 60.3,67.8 57.4,70.8 60.4,75 58.5,75 56.4,71.9 55.6,72.8 
        55.6,75 54.1,75     "/>
    <polygon class="st1" points="64,67.8 65.4,67.8 68.7,72.2 68.7,67.8 70.3,67.8 70.3,75 69,75 65.5,70.4 65.5,75 64,75     "/>
    <path class="st0" d="M77.9,75c-0.6,0-1.1-0.1-1.6-0.3c-0.5-0.2-0.9-0.5-1.3-0.9c-0.4-0.4-0.6-0.8-0.8-1.3c-0.2-0.5-0.3-1-0.3-1.6
        c0-0.5,0.1-1.1,0.3-1.6c0.4-1,1.2-1.8,2.1-2.2c0.5-0.2,1.1-0.3,1.6-0.3c0.6,0,1.1,0.1,1.6,0.3c0.5,0.2,0.9,0.5,1.3,0.9
        c0.4,0.4,0.6,0.8,0.8,1.3c0.2,0.5,0.3,1,0.3,1.6c0,0.5-0.1,1.1-0.3,1.6c-0.4,1-1.2,1.8-2.1,2.2C79,74.9,78.5,75,77.9,75z
         M77.9,73.4c0.3,0,0.6-0.1,0.9-0.2c0.3-0.1,0.5-0.3,0.7-0.5c0.2-0.2,0.4-0.5,0.5-0.8c0.1-0.3,0.2-0.6,0.2-1c0-0.3-0.1-0.7-0.2-1
        c-0.2-0.6-0.7-1.1-1.2-1.3c-0.3-0.1-0.6-0.2-0.9-0.2c-0.3,0-0.6,0.1-0.9,0.2c-0.3,0.1-0.5,0.3-0.7,0.5c-0.2,0.2-0.4,0.5-0.5,0.8
        c-0.1,0.3-0.2,0.6-0.2,1c0,0.3,0.1,0.7,0.2,1c0.1,0.3,0.3,0.6,0.5,0.8c0.2,0.2,0.5,0.4,0.8,0.5C77.3,73.3,77.6,73.4,77.9,73.4
        L77.9,73.4z"/>
    <polygon class="st1" points="85.6,67.8 87.3,67.8 88.8,72.6 90.3,67.8 91.7,67.8 93.3,72.6 94.8,67.8 96.4,67.8 94,75 92.6,75 
        91,70.3 89.4,75 88,75     "/>
    <polygon class="st1" points="100,67.8 101.7,67.8 101.7,73.6 105.4,73.6 105.4,75 100,75     "/>
    <polygon class="st1" points="109,67.8 114.4,67.8 114.4,69.2 110.6,69.2 110.6,70.6 113.9,70.6 113.9,72.1 110.6,72.1 110.6,73.6 
        114.4,73.6 114.4,75 109,75     "/>
    <path class="st0" d="M118,67.8h3c0.6,0,1.1,0.1,1.7,0.3c0.5,0.2,0.9,0.4,1.3,0.7c0.4,0.3,0.7,0.7,0.9,1.1c0.2,0.5,0.3,1,0.3,1.5
        c0,0.5-0.1,1-0.3,1.5c-0.2,0.4-0.5,0.8-0.9,1.1c-0.4,0.3-0.8,0.6-1.3,0.8c-0.5,0.2-1.1,0.3-1.7,0.3h-3V67.8z M121.1,73.6
        c0.3,0,0.7,0,1-0.2c0.3-0.1,0.5-0.2,0.7-0.4c0.2-0.2,0.4-0.4,0.5-0.7c0.1-0.3,0.2-0.6,0.2-0.9c0-0.3-0.1-0.6-0.2-0.9
        c-0.1-0.3-0.3-0.5-0.5-0.7c-0.2-0.2-0.5-0.3-0.7-0.4c-0.3-0.1-0.6-0.2-1-0.2h-1.3v4.4L121.1,73.6z"/>
    <path class="st1" d="M132.8,75c-0.5,0-1.1-0.1-1.6-0.3c-0.5-0.2-0.9-0.5-1.3-0.9c-0.4-0.4-0.6-0.8-0.8-1.3c-0.2-0.5-0.3-1-0.3-1.6
        c0-1.6,0.9-3.1,2.4-3.8c0.5-0.2,1-0.3,1.6-0.3c0.3,0,0.6,0,0.9,0.1c0.3,0,0.5,0.1,0.8,0.2c0.2,0.1,0.5,0.2,0.7,0.3
        c0.2,0.1,0.4,0.3,0.6,0.5l-1,1.3c-0.1-0.1-0.3-0.2-0.4-0.3c-0.1-0.1-0.3-0.2-0.4-0.2c-0.2-0.1-0.3-0.1-0.5-0.2
        c-0.2,0-0.4-0.1-0.6-0.1c-0.3,0-0.6,0.1-0.8,0.2c-0.3,0.1-0.5,0.3-0.7,0.5c-0.2,0.2-0.4,0.5-0.5,0.8c-0.1,0.3-0.2,0.6-0.2,1
        c0,0.3,0.1,0.7,0.2,1c0.1,0.3,0.3,0.6,0.5,0.8c0.2,0.2,0.5,0.4,0.8,0.5c0.3,0.1,0.6,0.2,0.9,0.2c0.6,0,1.1-0.1,1.6-0.5v-1.2h-1.7
        v-1.5h3.3v3.4c-0.4,0.4-0.9,0.7-1.4,0.9C134.1,74.9,133.4,75,132.8,75z"/>
    <polygon class="st1" points="140.6,67.8 145.9,67.8 145.9,69.2 142.1,69.2 142.1,70.6 145.5,70.6 145.5,72.1 142.1,72.1 
        142.1,73.6 146,73.6 146,75 140.6,75     "/>
    <polygon class="st1" points="155,67.8 156.8,67.8 156.8,75 155,75     "/>
    <polygon class="st1" points="162.7,69.2 160.4,69.2 160.4,67.8 166.7,67.8 166.7,69.2 164.4,69.2 164.4,75 162.7,75     "/>
    <path class="st1" d="M178.8,75c-0.5,0-1.1-0.1-1.6-0.3c-1-0.4-1.7-1.2-2.1-2.1c-0.2-0.5-0.3-1-0.3-1.6c0-0.5,0.1-1.1,0.3-1.6
        c0.2-0.5,0.5-0.9,0.8-1.3c0.4-0.4,0.8-0.7,1.3-0.9c0.5-0.2,1.1-0.3,1.7-0.3c0.3,0,0.7,0,1,0.1c0.3,0.1,0.5,0.1,0.8,0.2
        c0.2,0.1,0.5,0.2,0.7,0.4c0.2,0.2,0.4,0.3,0.6,0.5l-1.1,1.3c-0.3-0.3-0.6-0.5-0.9-0.6c-0.3-0.2-0.7-0.2-1.1-0.2
        c-0.6,0-1.2,0.3-1.6,0.7c-0.2,0.2-0.4,0.5-0.5,0.8c-0.1,0.3-0.2,0.6-0.2,1c0,0.3,0.1,0.7,0.2,1c0.1,0.3,0.3,0.6,0.5,0.8
        c0.4,0.5,1,0.7,1.6,0.7c0.4,0,0.8-0.1,1.1-0.2c0.3-0.2,0.6-0.4,0.9-0.7l1.1,1.1c-0.2,0.2-0.4,0.4-0.6,0.6c-0.2,0.2-0.5,0.3-0.7,0.4
        c-0.3,0.1-0.6,0.2-0.8,0.3C179.5,75,179.1,75,178.8,75z"/>
    <path class="st0" d="M189.6,75c-0.6,0-1.1-0.1-1.6-0.3c-0.5-0.2-0.9-0.5-1.3-0.9c-0.4-0.4-0.6-0.8-0.8-1.3c-0.2-0.5-0.3-1-0.3-1.6
        c0-0.5,0.1-1.1,0.3-1.6c0.4-1,1.2-1.8,2.1-2.2c0.5-0.2,1.1-0.3,1.6-0.3c0.6,0,1.1,0.1,1.6,0.3c0.5,0.2,0.9,0.5,1.3,0.9
        c0.4,0.4,0.6,0.8,0.8,1.3c0.2,0.5,0.3,1,0.3,1.6c0,0.5-0.1,1.1-0.3,1.6c-0.4,1-1.2,1.8-2.1,2.2C190.8,74.9,190.2,75,189.6,75z
         M189.6,73.4c0.3,0,0.6-0.1,0.9-0.2c0.3-0.1,0.5-0.3,0.7-0.5c0.2-0.2,0.4-0.5,0.5-0.8c0.1-0.3,0.2-0.6,0.2-1c0-0.3-0.1-0.7-0.2-1
        c-0.2-0.6-0.7-1.1-1.2-1.3c-0.3-0.1-0.6-0.2-0.9-0.2c-0.3,0-0.6,0.1-0.9,0.2c-0.3,0.1-0.5,0.3-0.7,0.5c-0.2,0.2-0.4,0.5-0.5,0.8
        c-0.1,0.3-0.2,0.6-0.2,1c0,0.3,0.1,0.7,0.2,1c0.1,0.3,0.3,0.6,0.5,0.8c0.2,0.2,0.5,0.4,0.8,0.5C189,73.3,189.4,73.4,189.6,73.4
        L189.6,73.4z"/>
    <polygon class="st1" points="197.3,67.8 198.8,67.8 202.1,72.2 202.1,67.8 203.6,67.8 203.6,75 202.3,75 198.9,70.4 198.9,75 
        197.3,75     "/>
    <polygon class="st1" points="208.1,67.8 213.5,67.8 213.5,69.2 209.7,69.2 209.7,70.8 213.1,70.8 213.1,72.2 209.7,72.2 209.7,75 
        208.1,75     "/>
    <polygon class="st1" points="217.1,67.8 222.5,67.8 222.5,69.2 218.7,69.2 218.7,70.6 222,70.6 222,72.1 218.7,72.1 218.7,73.6 
        222.5,73.6 222.5,75 217.1,75     "/>
    <path class="st0" d="M227,67.8h3.3c0.8-0.1,1.5,0.2,2.1,0.7c0.4,0.4,0.7,1,0.6,1.6c0,0.5-0.1,1-0.4,1.4c-0.3,0.4-0.7,0.7-1.1,0.8
        l1.8,2.6h-1.9l-1.6-2.3h-1.3V75H227V67.8z M230.3,71.3c0.3,0,0.7-0.1,0.9-0.3c0.2-0.2,0.3-0.4,0.3-0.7c0-0.3-0.1-0.6-0.3-0.8
        c-0.3-0.2-0.6-0.3-0.9-0.3h-1.6v2.1L230.3,71.3z"/>
    <polygon class="st1" points="237,67.8 242.3,67.8 242.3,69.2 238.5,69.2 238.5,70.6 241.8,70.6 241.8,72.1 238.5,72.1 238.5,73.6 
        242.4,73.6 242.4,75 237,75     "/>
    <polygon class="st1" points="246.9,67.8 248.3,67.8 251.6,72.2 251.6,67.8 253.2,67.8 253.2,75 251.9,75 248.4,70.4 248.4,75 
        246.9,75     "/>
    <path class="st1" d="M260.8,75c-0.5,0-1.1-0.1-1.6-0.3c-1-0.4-1.7-1.2-2.1-2.1c-0.2-0.5-0.3-1-0.3-1.6c0-0.5,0.1-1.1,0.3-1.6
        c0.2-0.5,0.5-0.9,0.8-1.3c0.4-0.4,0.8-0.7,1.3-0.9c0.5-0.2,1.1-0.3,1.7-0.3c0.3,0,0.7,0,1,0.1c0.3,0.1,0.5,0.1,0.8,0.2
        c0.2,0.1,0.5,0.2,0.7,0.4c0.2,0.2,0.4,0.3,0.6,0.5l-1.1,1.3c-0.3-0.3-0.6-0.5-0.9-0.6c-0.3-0.2-0.7-0.2-1.1-0.2
        c-0.3,0-0.6,0.1-0.9,0.2c-0.3,0.1-0.5,0.3-0.7,0.5c-0.2,0.2-0.4,0.5-0.5,0.8c-0.1,0.3-0.2,0.6-0.2,1c0,0.3,0.1,0.7,0.2,1
        c0.1,0.3,0.3,0.6,0.5,0.8c0.4,0.5,1,0.7,1.6,0.7c0.4,0,0.8-0.1,1.1-0.2c0.3-0.2,0.6-0.4,0.9-0.7l1.1,1.1c-0.2,0.2-0.4,0.4-0.6,0.6
        c-0.2,0.2-0.5,0.3-0.7,0.4c-0.3,0.1-0.6,0.2-0.8,0.3C261.5,75,261.1,75,260.8,75z"/>
    <polygon class="st1" points="267.6,67.8 272.9,67.8 272.9,69.2 269.1,69.2 269.1,70.6 272.5,70.6 272.5,72.1 269.1,72.1 
        269.1,73.6 273,73.6 273,75 267.6,75     "/>
</g>
<linearGradient id="SVGID_1_" gradientUnits="userSpaceOnUse" x1="135.8078" y1="18.554" x2="136.3078" y2="85.054" gradientTransform="matrix(1 0 0 -1 0 76)">
    <stop  offset="0" style="stop-color:#F9A41A"/>
    <stop  offset="0.9848" style="stop-color:#FFEE54"/>
</linearGradient>
<path class="st2" d="M13.8,2.3H0V0h24.3v2.3H16v3.2h8.3v2.3H16v0.6v42.1h-2.3V8.3V7.9h-3.2v42.7H8.3V7.9H0V5.6h13.8V2.3z M135.8,3
    c-2.1-2.3-5.2-3-8-3c-2.9-0.1-5.7,1-7.8,3c-2.4,2.2-3.8,5.3-3.8,8.5v27.8c0,3.2,1.4,6.3,3.8,8.5c2.1,1.9,4.9,2.8,7.8,2.8
    c2.9,0,5.7-1,8-2.8c2.4-2.2,3.8-5.3,3.8-8.5V11.5C139.6,8.3,138.3,5.2,135.8,3z M137.5,39.3c0,2.5-1,4.9-2.8,6.6
    c-1.8,1.7-4.3,2.6-6.8,2.5c-2.3,0.1-4.6-0.7-6.3-2.3c-2-1.7-3.1-4.2-3.1-6.8V11.6c0-2.6,1.1-5.1,3.1-6.8c1.7-1.6,4-2.5,6.3-2.5
    c2.4,0,4.8,0.9,6.5,2.5c2,1.7,3.1,4.2,3.1,6.8V39.3z M63,8.6c-3.5,4.8-5.4,10.7-5.3,16.6c-0.1,6,1.8,11.8,5.3,16.7
    c1.8,2.5,4.2,4.6,6.9,6.2c2.9,1.6,6.1,2.4,9.4,2.5v-2.3c-2.9,0-5.7-0.8-8.2-2.3c-2.4-1.4-4.6-3.3-6.2-5.5c-3.2-4.5-4.9-9.8-4.9-15.3
    c-0.1-5.5,1.7-10.8,4.9-15.3c1.7-2.2,3.8-4.1,6.2-5.5c2.5-1.5,5.3-2.2,8.2-2.2V0c-3.3,0-6.5,0.8-9.4,2.4C67.2,4,64.8,6.1,63,8.6z
     M67.3,11.6c-2.8,3.9-4.3,8.5-4.3,13.2c0,4.7,1.4,9.3,4.3,13.2c1.4,1.8,3.2,3.4,5.3,4.5c2,1.1,4.3,1.8,6.7,1.8V42
    c-1.9,0-3.8-0.5-5.5-1.5c-1.8-1-3.3-2.3-4.5-3.9c-2.6-3.5-3.9-7.6-3.8-11.8c-0.1-4.2,1.3-8.4,3.8-11.9c1.2-1.6,2.8-2.9,4.5-3.9
    c1.7-0.9,3.6-1.4,5.5-1.4V5.4c-2.4-0.1-4.7,0.5-6.7,1.7C70.5,8.3,68.7,9.8,67.3,11.6z M127.4,5.4c1.4,0,2.8,0.5,3.8,1.4
    c1.3,1,2.1,2.6,2.1,4.4v27.3c0,1.7-0.8,3.3-2.1,4.4c-1.1,1-2.4,1.5-3.8,1.4c-1.4,0-2.8-0.5-3.9-1.4c-1.2-1.1-1.9-2.7-1.9-4.4V11.2
    c0-1.7,0.7-3.2,1.9-4.4C124.6,5.9,126,5.4,127.4,5.4z M129.9,41.2c0.8-0.7,1.2-1.7,1.2-2.7l0-27.3c0-1.1-0.4-2.1-1.2-2.7
    c-0.7-0.6-1.6-1-2.5-0.9c-0.9,0-1.9,0.3-2.6,0.9c-0.8,0.7-1.2,1.7-1.2,2.7v27.3c0,1.1,0.4,2.1,1.2,2.7c0.7,0.6,1.6,1,2.5,0.9
    C128.3,42.2,129.2,41.9,129.9,41.2z M30.6,42.7V0v0h19.8v2.3H33v19.2h3.3V7.9V5.6h14.2v2.3H38.6v13.6h11.9v2.4H33v18.8h3.3V27.1
    h14.2v2.3H38.6v13.2h11.9V45H38.6v3.2h11.9v2.3H30.6v-0.1V45V42.7z M36.3,48.2V45L33,45v3.2H36.3z M81.1,29.2h4.8V0h2.4v50.6h-2.4
    V37.1h-4.8v-2.4h4.8v-3.3h-4.8V29.2z M105.8,29.2h-3.3V0h-2.3v29.2h-6.8V0H91v50.6h2.3V37.1h6.8v13.5h2.3V37.1h3.3v13.5h2.3V0h-2.3
    L105.8,29.2z M93.3,34.8v-3.3h6.8v3.3H93.3z M102.5,31.5v3.3h3.3v-3.3H102.5z M189.3,0c2.8,0,5.8,0.8,7.9,3c2.4,2.2,3.8,5.3,3.8,8.5
    v39h-2.1v-39c0-2.6-1.1-5.1-3.1-6.8c-1.8-1.6-4.1-2.5-6.5-2.5c-2.3,0-4.6,0.9-6.3,2.5c-2,1.7-3.1,4.2-3.1,6.8v12.3l3.2,1.8V11.5
    c0-1.7,0.7-3.3,2-4.4c1.2-1,2.6-1.5,4.2-1.5c1.5,0,2.9,0.5,4,1.5c1.4,1,2.3,2.7,2.3,4.4v23.8l-2.4-1.3l-5.9-3.3l-2.1-1.2v3.8
    l0.6,0.3l7.4,4.2l2.4,1.3v11.5h-2.4V40.5l-3.1-1.7l-0.9-0.5l-3.9-2.3l-0.1-0.1v14.6h-2.1V34.8l-3.2-1.8v17.6h-2.1V31.8l-4.8-2.7
    l1.2-2l3.6,2.1v-3.8l-4.8-2.7l1.2-2l3.6,2.1V11.5c0-3.2,1.4-6.3,3.8-8.5C183.6,1,186.4-0.1,189.3,0z M186.5,8.8
    c-0.8,0.7-1.3,1.7-1.3,2.8v15.3l8,4.5V11.5c0-1.1-0.4-2.1-1.3-2.8c-0.7-0.6-1.7-1-2.7-1C188.3,7.8,187.3,8.1,186.5,8.8z M183.1,28.3
    v3.8l-3.2-1.8v-3.8L183.1,28.3z M268.5,3c-2-2.3-5-3-7.6-3c-2.8-0.1-5.5,1-7.4,3c-2.3,2.2-3.7,5.3-3.7,8.5v11.1l-3.5-2.1l-1.1,2
    l4.7,2.7v3.8l-3.5-2.1l-1.1,2l4.7,2.7v18.8h2.1V33l3.1,1.8v15.8h2.1V36L257,36l3.8,2.3l0.8,0.5l3,1.7v10.1h2.3V39.1l-2.3-1.3
    l-7.2-4.2l-0.5-0.3v-3.8l2.1,1.2l5.7,3.3l2.3,1.3V11.5c0-1.8-0.8-3.4-2.2-4.4c-1.1-1-2.5-1.5-4-1.5c-1.4,0-2.9,0.5-4,1.5
    c-1.2,1.1-1.9,2.7-1.9,4.4v14.1l-3.1-1.8V11.5c0-2.6,1.1-5.1,3-6.8c1.6-1.6,3.8-2.5,6.1-2.5c2.3,0,4.6,0.9,6.3,2.5
    c1.9,1.7,3,4.2,2.9,6.8v39h2v-39C272.1,8.3,270.8,5.2,268.5,3z M256.9,11.5c0-1.1,0.4-2.1,1.2-2.8c0.7-0.7,1.7-1,2.7-1
    c1,0,1.9,0.3,2.6,1c0.8,0.7,1.3,1.7,1.2,2.8v19.8l-7.8-4.5V11.5z M254.9,32.1v-3.8l-3.1-1.8v3.8L254.9,32.1z M166.9,14.4
    c-0.3-0.8-0.6-1.6-0.9-2.4c-0.1-0.1-0.1-0.3-0.2-0.4l0,0c0-0.1-0.1-0.1-0.1-0.2c-0.1-0.1-0.1-0.3-0.2-0.4c0-0.1-0.1-0.1-0.1-0.2
    c-0.1-0.2-0.2-0.4-0.4-0.6l-0.3-0.4c0,0-0.1-0.1-0.1-0.1l0,0c-0.1-0.1-0.2-0.3-0.2-0.4l-0.3-0.4l-0.4-0.5l-0.3-0.4L163,7.2l-0.3-0.4
    l-0.5-0.5L161.9,6c-0.2-0.2-0.4-0.4-0.6-0.6l-0.2-0.2c-0.3-0.3-0.6-0.5-0.9-0.7L160,4.4c-0.2-0.2-0.5-0.4-0.7-0.5L159,3.6l-0.6-0.4
    L158.1,3l-0.7-0.4l-0.3-0.2l-0.7-0.4l-0.3-0.2c-0.3-0.1-0.5-0.2-0.8-0.3L155,1.4c-0.4-0.1-0.7-0.3-1.1-0.4h0
    c-0.5-0.2-0.9-0.3-1.4-0.4L152,0.5c-0.4-0.1-0.8-0.2-1.2-0.2l-0.5-0.1v0c-0.3,0-0.6-0.1-0.9-0.1C148.6,0,147.8,0,147,0l11.2,27.1
    c-0.7,1.1-1.5,2.1-2.4,3l-0.1,0.1L146,6.7v43.8h2.2V18l3.4,8.1l0.1,0.2v24.2h2.2V40.4c1.1-0.3,2.1-0.8,3.1-1.3l4.8,11.6h2.4
    L158,35.7c-1.3,1-2.7,1.7-4.2,2.2V34c5.5-2.7,8.8-8.5,8.4-14.7c-0.5-5.3-3.6-10-8.4-12.3c-0.2-0.1-0.5-0.2-0.7-0.3L153,6.6
    c-0.3-0.1-0.7-0.3-1-0.4l-1.6-3.7c0.4,0.1,0.7,0.1,1.1,0.2l0.3,0.1c0.3,0.1,0.5,0.1,0.8,0.2l0.4,0.1l0.7,0.2l0.4,0.1l0.6,0.3
    l0.4,0.2l0.6,0.3l0.4,0.2l0.6,0.3l0.4,0.2l0.6,0.4l0.3,0.2l0.5,0.4l0.3,0.3l0.5,0.5l0.3,0.3c0.2,0.2,0.4,0.4,0.6,0.5l0.2,0.2
    l0.7,0.7c0.2,0.3,0.5,0.6,0.7,0.9l0.2,0.2l0.1,0.1l0,0v0c0.1,0.2,0.3,0.4,0.4,0.5l0.2,0.3c0,0.1,0.1,0.1,0.1,0.2l0,0
    c0.1,0.1,0.2,0.3,0.3,0.4l0.2,0.4c0.3,0.6,0.6,1.2,0.9,1.8c2.5,5.9,1.8,12.8-1.8,18.1c-0.3,0.4-0.6,0.8-1,1.2v0l0,0v0
    c-0.2,0.3-0.4,0.5-0.7,0.8l7.1,17.2h2.4l-7-16.8C167.6,28.3,169,21,166.9,14.4z M154.3,9.9c0.8,0.5,1.4,1,2.1,1.7
    c3.3,3.4,4.4,8.3,3,12.8L153.9,11l-0.1-0.1V9.6L154.3,9.9z M208.1,5.4v44.3h2.3V13.6l3.5,4.8l-0.3-0.3v10.8V34v5.2v4.8v5.8h2.3v-10
    v-5.1v-5.2v-8l-0.4-0.8l8.5,11.5l7.8-10.6v7.9v5.2v5.1v10h2.3v-5.8v-4.8V34v-5.1V18.4l3.3-4.4v35.7h2.3v-44L224,27.9L208.1,5.4z
     M211.3,0l13.1,19.2l13-19.2h3.2l-16.2,23.5L208.1,0H211.3z"/>
</svg>
