<?xml version="1.0" encoding="UTF-8" standalone="no"?>
<svg
   width="38.660183"
   height="35.000038"
   viewBox="0 0 38.660183 35.000038"
   version="1.1"
   id="svg866"
   sodipodi:docname="365talents.svg"
   inkscape:version="1.1.1 (c3084ef, 2021-09-22)"
   xmlns:inkscape="http://www.inkscape.org/namespaces/inkscape"
   xmlns:sodipodi="http://sodipodi.sourceforge.net/DTD/sodipodi-0.dtd"
   xmlns="http://www.w3.org/2000/svg"
   xmlns:svg="http://www.w3.org/2000/svg">
  <defs
     id="defs870" />
  <sodipodi:namedview
     id="namedview868"
     pagecolor="#ffffff"
     bordercolor="#666666"
     borderopacity="1.0"
     inkscape:pageshadow="2"
     inkscape:pageopacity="0.0"
     inkscape:pagecheckerboard="true"
     showgrid="false"
     fit-margin-top="0"
     fit-margin-left="0"
     fit-margin-right="0"
     fit-margin-bottom="0"
     inkscape:zoom="3.745"
     inkscape:cx="72.763685"
     inkscape:cy="17.489987"
     inkscape:window-width="1810"
     inkscape:window-height="969"
     inkscape:window-x="0"
     inkscape:window-y="25"
     inkscape:window-maximized="0"
     inkscape:current-layer="svg866" />
  <path
     fill="#ffffff"
     fill-rule="evenodd"
     d="m 27.508683,33.815038 c 1.654,0 3.036,-1.17 3.421,-2.738 -1.559,-0.158 -3.079,-0.814 -4.273,-2.032 -2.746,-2.801 -2.746,-7.344 0,-10.145 1.224,-1.25 2.79,-1.91 4.39,-2.044 V 9.9430377 c 0,-1.99 -1.588,-3.61 -3.538,-3.61 h -3.449 c -0.04292,0.2014835 -0.108682,0.3974157 -0.196,0.584 -0.637,1.32 -2.202,1.865 -3.498,1.215 -0.70816,-0.3610795 -1.216108,-1.0218156 -1.383,-1.799 h -6.952 c -0.06274,0.6833518 -0.24661,1.350082 -0.543,1.969 -1.36,2.7810003 -4.6289998,3.9280003 -7.3769998,2.6400003 v 14.648 c 0.33,0.056 0.659,0.144 0.975,0.303 1.747,0.876 2.468,3.033 1.609,4.816 -0.3735265,0.775493 -1.0181126,1.387352 -1.812,1.72 0.65,0.838 1.641,1.387 2.767,1.387 H 27.509683 Z m 4.7,-16.96 c 1.6,0.135 3.167,0.796 4.392,2.045 2.746,2.803 2.746,7.344 0,10.145 -1.247,1.272 -2.848,1.936 -4.48,2.052 -0.412,2.219 -2.32,3.903 -4.612,3.903 H 7.6486832 c -1.693,0 -3.168,-0.926 -3.995,-2.299 -0.5809761,0.02814 -1.1595328,-0.09232 -1.681,-0.35 -1.74799997,-0.878 -2.46999997,-3.033 -1.60999997,-4.817 0.4932005,-1.032309 1.45721277,-1.760633 2.58499997,-1.953 v -15.353 c -2.03699997,-1.6500003 -2.73999997,-4.5780003 -1.533,-7.0470003 1.384,-2.83599995 4.763,-3.99099995 7.544,-2.57799995 C 10.745683,1.5120377 11.838683,3.2610377 12.033683,5.1460377 h 6.943 c 0.044,-0.196 0.106,-0.391 0.197,-0.58 0.634,-1.321 2.201,-1.867 3.497,-1.218 0.707915,0.3606463 1.215589,1.0211365 1.382,1.798 h 3.456 c 2.592,0 4.7,2.152 4.7,4.797 v 6.9130003 z"
     id="path864"
     sodipodi:nodetypes="cccccsscccccccccccsccccccssccccccccccccsscc" />
</svg>
