<svg xmlns="http://www.w3.org/2000/svg" viewBox="0 0 18 18">
   <path style="fill:#fff;stroke-width:.26458332" d="M17.138 290.394c-.53-.529-1.244-.74-1.932-.687l-3.836-5.16a2.111 2.111 0 0 0-.424-2.408c-.82-.82-2.17-.82-2.99 0a2.09 2.09 0 0 0-.29 2.62l-2.858 4.577a1.68 1.68 0 0 0-1.138 0l-1.534-1.878c.08-.16.132-.318.132-.503 0-.582-.476-1.058-1.058-1.058-.582 0-1.059.476-1.059 1.058 0 .582.477 1.058 1.059 1.058h.132l1.482 2.17a1.586 1.586 0 0 0 .317 1.773c.609.608 1.614.608 2.25 0 .449-.45.555-1.085.37-1.64l3.386-4.552c.185.027.37.027.556 0l3.545 5.398a2.37 2.37 0 0 0 .503 2.62 2.38 2.38 0 0 0 3.36 0c.98-.927.98-2.435.027-3.388" transform="translate(0 -279)" />
</svg>
