<?xml version="1.0" encoding="UTF-8" standalone="no"?>
<!-- Generator: Adobe Illustrator 18.1.0, SVG Export Plug-In . SVG Version: 6.00 Build 0)  -->

<svg
   version="1.1"
   id="Calque_1"
   x="0px"
   y="0px"
   width="430"
   height="130"
   viewBox="0 0 430 130"
   enable-background="new 0 0 130 130"
   xml:space="preserve"
   sodipodi:docname="cleverage.svg"
   inkscape:version="1.1 (c4e8f9e, 2021-05-24)"
   xmlns:inkscape="http://www.inkscape.org/namespaces/inkscape"
   xmlns:sodipodi="http://sodipodi.sourceforge.net/DTD/sodipodi-0.dtd"
   xmlns="http://www.w3.org/2000/svg"
   xmlns:svg="http://www.w3.org/2000/svg"><defs
   id="defs928" /><sodipodi:namedview
   id="namedview926"
   pagecolor="#ffffff"
   bordercolor="#666666"
   borderopacity="1.0"
   inkscape:pageshadow="2"
   inkscape:pageopacity="0.0"
   inkscape:pagecheckerboard="0"
   showgrid="false"
   inkscape:zoom="1.0185057"
   inkscape:cx="180.1659"
   inkscape:cy="18.163864"
   inkscape:window-width="1606"
   inkscape:window-height="1003"
   inkscape:window-x="468"
   inkscape:window-y="108"
   inkscape:window-maximized="0"
   inkscape:current-layer="Calque_1" />
<g
   id="g923"
   transform="translate(-0.1,-0.05)">
	<path
   fill="none"
   d="m 56.2,10.5 c -29.5,0 -53.4,23.9 -53.4,53.4 0,29.5 23.9,53.4 53.4,53.4 6.8,0 13.3,-1.3 19.3,-3.6 0,-1 0,-2 0,-3.1 0,-10.9 3.7,-25.4 7.9,-36.9 L 85,69.6 c 0.2,-0.5 0.6,-1.5 0.6,-1.5 C 85,67.1 83.5,65.2 81.1,63 L 81,63.2 c -1.8,2.9 -3.7,5.3 -5.7,7.4 C 55.9,90.3 27.1,76.4 27,76.4 L 26.3,76 v 0 l 0.2,-0.6 c 0,-0.1 8.6,-24.4 30.9,-24.2 6.1,0.1 13.1,1.9 21.2,6.6 3.2,1.7 3.8,2.2 3.8,2.2 2.3,2.1 4.4,5 4.4,5 1.6,-3.8 3.2,-7.3 4.8,-10.4 L 91.5,54 c 0,0 -0.2,-1.3 -0.7,-2.8 -0.5,-1.5 -1.3,-3.2 -2.5,-4.3 -6.6,0.9 -12,1.3 -16.6,1.2 -12.3,-0.2 -18.5,-3.4 -24.2,-6.6 -5.8,-3.2 -11,-6.3 -22.1,-6.4 -0.2,0 -0.4,0 -0.5,0 -0.2,0 -0.3,0 -0.4,0 -0.2,0 -0.4,0 -0.6,-0.1 -0.2,-0.1 -0.5,-0.4 -0.5,-0.8 0.1,-0.8 0.6,-1 1.3,-1.5 0.7,-0.4 1.7,-1 2.9,-1.6 2.5,-1.2 5.9,-2.6 9.9,-4 8.1,-2.7 18.5,-5.2 28,-5.1 10.8,0.1 20.6,3.7 24,14.4 v 0.1 c 0,0 0,0.5 0,0.7 -0.1,4 1.1,7.5 2.2,10.1 0.7,1.6 1.4,2.7 1.8,3.4 2.9,-5.7 5.2,-9.5 5.6,-10.2 0.1,-0.2 0.2,-0.5 0.3,-0.7 0.5,-1.6 1.1,-3.5 1.3,-5.5 C 91.1,20 74.7,10.5 56.2,10.5 Z"
   id="path909" />
	<path
   fill="none"
   d="m 101.5,40.2 c -0.2,0.2 -0.3,0.4 -0.4,0.6 -1.9,3.7 -5.4,10.7 -9,19.4 1.3,-0.8 2.9,-1.4 4.8,-1.9 l 0.2,0.6 -0.1,-0.6 c 1.3,-0.3 4.2,-1.2 8,-1.1 1.3,0 2.7,0.2 4.2,0.4 -0.8,-7 -3,-13.6 -6.2,-19.5 -0.6,0.8 -1.1,1.5 -1.5,2.1 z"
   id="path911" />
	<path
   fill="none"
   d="m 100.4,93.7 c -6,-7.2 -11.2,-15 -12.7,-21.6 -3.5,10.4 -6.5,21.5 -6.5,31.8 0,2.3 0.2,4.5 0.5,6.8 7.6,-4.1 14,-9.9 18.7,-17 z"
   id="path913" />
	<path
   fill="#dfdfe0"
   d="M 56.2,117.3 C 26.7,117.3 2.8,93.4 2.8,63.9 2.8,34.4 26.7,10.5 56.2,10.5 c 18.5,0 34.9,9.5 44.5,23.9 0.1,-0.6 0.1,-1.1 0.1,-1.7 0,-2.1 -3.1,-5 -4.9,-8.5 C 85.7,14 71.6,7.8 56.2,7.8 25.2,7.8 0.1,33 0.1,63.9 c 0,30.9 25.1,56.1 56.1,56.1 6.8,0 13.4,-1.2 19.4,-3.4 0,-1 -0.1,-1.9 -0.1,-3 -6,2.4 -12.5,3.7 -19.3,3.7 z"
   id="path915" />
	<path
   fill="#dfdfe0"
   d="m 109.2,57.7 c 0.9,0.2 1.9,0.5 2.9,0.8 -0.8,-8.1 -3.3,-15.8 -7.2,-22.5 -0.7,0.7 -1.3,1.5 -1.9,2.3 3.2,5.8 5.4,12.4 6.2,19.4 z"
   id="path917" />
	<path
   fill="#dfdfe0"
   d="m 81.8,110.8 c 0.1,1 0.3,1.9 0.5,2.9 8,-4.2 14.9,-10.3 20.1,-17.7 -0.6,-0.7 -1.2,-1.5 -1.9,-2.2 -4.8,7 -11.2,12.8 -18.7,17 z"
   id="path919" />
	<path
   fill="#788f29"
   d="m 122.9,65.3 c -3.7,-3.6 -7.4,-5.7 -10.8,-6.8 -1,-0.3 -2,-0.6 -2.9,-0.8 -1.5,-0.3 -2.9,-0.4 -4.2,-0.4 -3.8,-0.1 -6.7,0.9 -8,1.1 l 0.1,0.6 -0.2,-0.6 c -1.9,0.4 -3.5,1.1 -4.8,1.9 3.6,-8.7 7.1,-15.7 9,-19.4 0.1,-0.2 0.3,-0.4 0.4,-0.6 0.4,-0.6 0.9,-1.3 1.4,-2 0.6,-0.8 1.2,-1.5 1.9,-2.3 0.5,-0.5 0.9,-0.9 1.4,-1.3 2.9,-2.2 13.6,1.4 16.5,-6.8 1.9,-5.4 -0.6,-19.2 -2.6,-27.9 v 0 c -8,3.7 -21.1,10.6 -24.3,15.5 -2,3.1 -1.4,6 0,8.6 1.8,3.5 4.9,6.5 4.9,8.5 0,0.6 -0.1,1.1 -0.1,1.7 -0.2,1.9 -0.8,3.9 -1.3,5.5 -0.1,0.3 -0.2,0.5 -0.3,0.7 -0.4,0.8 -2.7,4.5 -5.6,10.2 -0.4,-0.6 -1.1,-1.8 -1.8,-3.4 -1.1,-2.5 -2.2,-6.1 -2.2,-10.1 0,-0.2 0,-0.7 0,-0.7 V 36.4 C 86.1,25.7 76.2,22.1 65.4,22 c -9.5,-0.1 -19.9,2.3 -28,5.1 -4,1.3 -7.5,2.8 -9.9,4 -1.2,0.6 -2.2,1.1 -2.9,1.6 -0.7,0.5 -1.1,0.7 -1.3,1.5 0,0.3 0.3,0.7 0.5,0.8 0.2,0.1 0.4,0.1 0.6,0.1 0.1,0 0.3,0 0.4,0 0.2,0 0.3,0 0.5,0 11,0.2 16.3,3.2 22.1,6.4 5.7,3.2 11.9,6.4 24.2,6.6 4.6,0.1 10,-0.3 16.6,-1.2 1.2,1.1 2,2.8 2.5,4.3 0.5,1.6 0.7,2.8 0.7,2.8 l 0.1,0.5 c -1.5,3.1 -3.1,6.6 -4.8,10.4 0,0 -2,-2.9 -4.4,-5 0,0 -0.6,-0.5 -3.8,-2.2 C 70.5,53 63.4,51.1 57.3,51.1 34.9,50.9 26.4,75.2 26.4,75.3 L 26.3,76 v 0 l 0.8,0.4 c 0.1,0 28.8,13.9 48.3,-5.8 2,-2.1 3.9,-4.5 5.7,-7.4 l 0.1,-0.1 c 2.4,2.2 3.8,4.1 4.5,5.1 0,0 -0.5,1 -0.6,1.5 l -1.6,4.1 c -4.2,11.5 -7.9,26 -7.9,36.9 0,1 0,2.1 0,3.1 0,1 0,2 0.1,3 0.3,7.8 1,13.3 1,13.3 v 0 h 0.1 c -0.1,0 11.6,-0.1 11.5,0 -2.3,-3.5 -4.7,-9.5 -6,-16.3 -0.2,-1 -0.3,-1.9 -0.5,-2.9 -0.3,-2.2 -0.5,-4.5 -0.5,-6.8 0,-10.3 2.9,-21.4 6.5,-31.8 1.5,6.6 6.7,14.3 12.7,21.6 0.6,0.7 1.2,1.5 1.9,2.2 0.9,1.1 1.9,2.2 2.8,3.2 8.9,9.9 17.9,17.6 17.9,17.6 l 0.7,0.6 0.3,-0.9 c 0,0 5.2,-15.4 5.4,-29.9 0,-8.4 -1.5,-16.5 -6.6,-21.4 z"
   id="path921" />
</g>
<g
   id="g1186"
   transform="translate(153.3)">
	<path
   fill="none"
   d="m 93.5,101.9 c 9.9,-9.7 16.1,-23.1 16.1,-38 0,-5.2 -0.8,-10.1 -2.1,-14.9 L 91.1,93.8 Z"
   id="path1172" />
	<polygon
   fill="none"
   points="69.2,66.3 55.1,13.6 53.1,27 65.5,75 "
   id="polygon1174" />
	<path
   fill="none"
   d="M 56.6,73 44.5,25.5 50,14.9 l 5.1,-1.3 15,9.9 7.2,24 11.2,-25.9 c -8.9,-6.8 -20,-10.8 -32,-10.8 -29.3,0 -53.2,23.8 -53.2,53.1 0,26.2 21,48.1 44.7,52.3 l 1.9,-4.3 -31.9,-57.3 0.6,-7.5 23.7,6.3 z"
   id="path1176" />
	<path
   fill="#dfdfe0"
   d="m 3.2,63.9 c 0,-29.3 23.9,-53.1 53.2,-53.1 12,0 23.1,4 32,10.8 l 1.3,-3.1 C 80.5,11.6 68.9,7.5 56.4,7.5 25.3,7.5 0,32.7 0,63.9 c 0,27.4 22.9,50.3 46.6,55.3 l 1.3,-3 C 24.3,111.9 3.2,90.1 3.2,63.9 Z"
   id="path1178" />
	<path
   fill="#dfdfe0"
   d="m 112.8,63.9 c 0,-7 -1.3,-13.6 -3.6,-19.8 l -1.8,4.9 c 1.4,4.7 2.1,9.7 2.1,14.9 0,14.9 -6.2,28.3 -16.1,38 l 1,3.5 c 11.3,-10.3 18.4,-25.1 18.4,-41.5 z"
   id="path1180" />
	<polygon
   fill="#007eb1"
   points="77.9,130 28.8,57.1 18.6,47.1 18,54.6 49.8,111.9 47.9,116.2 46.6,119.2 44.6,123.8 56.3,123.7 "
   id="polygon1182" />
	<polygon
   fill="#007eb1"
   points="108.7,10 74,97 69.7,91.1 104.8,8.6 104.3,3.3 94.1,8.5 89.8,18.5 88.5,21.6 77.3,47.5 70.2,23.5 55.1,13.6 69.2,66.3 65.5,75 53.1,27 55.1,13.6 50,14.9 44.5,25.5 56.6,73 42.3,53.4 18.6,47.1 33.6,54.8 82.5,128.3 93.9,124.4 99.5,122.1 94.5,105.4 93.5,101.9 91.1,93.8 107.4,49 109.2,44.1 123.4,5.1 122.5,0 "
   id="polygon1184" />
</g><g
   id="g1229"
   transform="translate(307.3099,0.02463609)">
	<path
   fill="none"
   d="M 87.5,64.1 C 82.1,60.8 82.8,49.5 88.9,39.4 92.9,32.8 98.1,28.5 102.5,27.6 98,21.8 92.3,17 85.8,13.4 c -0.3,1.3 -0.5,2.3 -0.6,2.9 l -5.9,-2.7 c 0.4,-1 0.9,-1.9 1.3,-2.7 C 74,8 66.6,6.3 58.9,6.3 28.3,6.3 3.4,31.2 3.4,61.8 c 0,23.7 15,44 36,51.9 -3,-5.5 -3.5,-11.4 -1,-17.5 3.1,-6.7 9.6,-5 16,-9.8 C 60.7,81.7 65.5,74 74,75.2 c 7.3,2.2 8.2,8.8 11.8,16 2.5,5.1 5.2,8.7 5.1,13.6 0,0.8 0,1.6 -0.1,2.3 3.6,-2.5 6.9,-5.5 9.8,-8.8 -1.7,0.1 -3.2,-0.2 -4.6,-1 -5.5,-3.5 -4.3,-13.8 1.2,-22.1 4.8,-7.2 11.9,-11.4 16.9,-10.1 0,0 0.1,0 0.1,0 0.1,-1.1 0.1,-2.1 0.1,-3.2 0,-7.2 -1.4,-14.1 -3.9,-20.4 -0.6,3.1 -1.7,6.4 -3.5,9.7 -5.3,10 -14.1,16.1 -19.4,12.9 z m -29.9,-34 c -2,3.7 -4.7,12.1 -4.8,14.3 L 47.6,42 c 2.8,-6.1 5.7,-9.4 10,-11.9 z m -0.8,40 C 53.4,80.9 45.6,88 39.6,86.3 33.7,84.7 31.2,75.2 34.1,64.8 37,54 44.7,45.9 51.2,47.1 c 6.6,1.3 9.2,11.8 5.6,23 z M 65.9,60 C 60,58.4 57.6,48.6 60.5,37.8 63.6,26.6 71.3,18.1 77.8,19.3 84.5,20.5 87,31.3 83.3,43 79.8,54.3 72,61.7 65.9,60 Z"
   id="path1201" />
	<path
   fill="#dfdfe0"
   d="m 117.4,55.7 c -0.8,-7.9 -3.2,-15.3 -6.8,-22 0.4,2.2 0.4,4.9 -0.2,7.7 2.5,6.3 3.9,13.2 3.9,20.4 0,1.1 0,2.1 -0.1,3.2 1.3,0.4 2.4,1.1 3.3,2.1 0.2,-1.8 0.3,-3.6 0.3,-5.4 0,-0.3 0,-0.6 0,-0.9 l -3,-1.4 c 0.5,-0.4 1.5,-1.9 2.6,-3.7 z"
   id="path1203" />
	<path
   fill="#dfdfe0"
   d="M 3.4,61.8 C 3.4,31.2 28.3,6.3 58.9,6.3 c 7.7,0 15.1,1.6 21.8,4.5 0.6,-1.1 1.2,-2 1.8,-3 C 75.3,4.6 67.3,2.9 58.9,2.9 26.4,2.9 0,29.3 0,61.8 c 0,26.9 18,49.5 42.6,56.6 -1.3,-1.5 -2.4,-3.1 -3.2,-4.7 -21,-7.9 -36,-28.2 -36,-51.9 z"
   id="path1205" />
	<path
   fill="#dfdfe0"
   d="m 90.8,107.1 c -0.1,1.6 -0.4,3.1 -0.7,4.6 6.5,-4.1 12.1,-9.4 16.6,-15.7 -2.1,1.3 -4.2,2.1 -6.1,2.2 -2.9,3.4 -6.2,6.3 -9.8,8.9 z"
   id="path1207" />
	<path
   fill="#dfdfe0"
   d="m 102.5,27.6 c 1.7,-0.4 3.4,-0.2 4.7,0.6 C 101.9,20.7 95,14.4 86.8,10 c -0.4,1.2 -0.7,2.4 -1,3.4 6.5,3.6 12.2,8.4 16.7,14.2 z"
   id="path1209" />
	<path
   fill="#cf4d17"
   d="m 122.3,46.5 c -0.9,2.4 -3.1,6.3 -4.9,9.2 -1.1,1.8 -2.1,3.2 -2.7,3.8 l 3,1.4 2.2,1 c 2.7,-6.1 3.3,-10.4 2.4,-15.4 z"
   id="path1211" />
	<path
   fill="#cf4d17"
   d="m 79.3,13.6 5.9,2.7 c 0,-0.6 0.3,-1.6 0.6,-2.9 0.3,-1 0.6,-2.2 1,-3.4 1.1,-3.6 2.7,-7.6 3.9,-10 -3.3,2 -5.9,4.4 -8.3,7.9 -0.6,0.9 -1.2,1.9 -1.8,3 -0.4,0.8 -0.8,1.7 -1.3,2.7 z"
   id="path1213" />
	<path
   fill="#cf4d17"
   d="m 113.5,8.4 c -1.7,4.4 -6.9,13 -8.7,14.8 l 5.9,2.7 c 3.2,-7 3.8,-11.9 2.8,-17.5 z"
   id="path1215" />
	<path
   fill="#cf4d17"
   d="m 57.6,30.1 c -4.3,2.6 -7.2,5.8 -10,11.9 l 5.2,2.4 c 0.1,-2.2 2.8,-10.7 4.8,-14.3 z"
   id="path1217" />
	<path
   fill="#cf4d17"
   d="M 90.9,104.7 C 91,99.8 88.3,96.2 85.8,91.1 82.3,83.9 81.3,77.3 74,75.1 65.5,73.9 60.7,81.6 54.4,86.3 c -6.5,4.8 -12.9,3.1 -16,9.8 -2.5,6.1 -2,12 1,17.5 0.9,1.6 2,3.1 3.2,4.7 0.3,0.4 0.6,0.7 0.9,1.1 8.4,9.3 24,12.8 31.3,9.1 8.6,-2.3 13.5,-8.9 15.4,-16.9 0.3,-1.5 0.6,-3 0.7,-4.6 0,-0.7 0,-1.5 0,-2.3 z"
   id="path1219" />
	<path
   fill="#cf4d17"
   d="M 51.2,47.1 C 44.7,45.9 37,54 34.1,64.8 31.2,75.2 33.7,84.6 39.6,86.3 45.7,88 53.4,80.9 56.9,70.1 60.4,58.9 57.8,48.4 51.2,47.1 Z"
   id="path1221" />
	<path
   fill="#cf4d17"
   d="M 77.9,19.4 C 71.4,18.2 63.7,26.7 60.6,37.9 57.6,48.7 60,58.4 65.9,60 72,61.7 79.8,54.3 83.3,43.1 87,31.4 84.6,20.6 77.9,19.4 Z"
   id="path1223" />
	<path
   fill="#cf4d17"
   d="m 102.5,27.6 c -4.4,0.9 -9.6,5.2 -13.6,11.8 -6.1,10.1 -6.8,21.4 -1.4,24.7 5.3,3.2 14.1,-2.9 19.4,-13 1.7,-3.3 2.9,-6.6 3.5,-9.7 0.6,-2.9 0.6,-5.5 0.2,-7.7 -0.5,-2.3 -1.4,-4.2 -3,-5.3 -0.1,-0.1 -0.3,-0.1 -0.4,-0.2 -1.3,-0.7 -3,-0.9 -4.7,-0.6 z"
   id="path1225" />
	<path
   fill="#cf4d17"
   d="m 114.2,65 c 0,0 -0.1,0 -0.1,0 -4.9,-1.3 -12,2.9 -16.9,10.1 -5.5,8.3 -6.7,18.6 -1.2,22.1 1.4,0.9 2.9,1.2 4.6,1 2,-0.1 4.1,-0.9 6.1,-2.2 4.1,-2.6 8,-7.1 10.5,-12.7 3.1,-6.9 2.8,-12.9 0.2,-16.1 -0.8,-1.1 -1.9,-1.8 -3.2,-2.2 z"
   id="path1227" />
</g></svg>
