<svg xmlns="http://www.w3.org/2000/svg" viewBox="0 0 560.305 101.64">
  <g transform="translate(332.675 10.08)">
    <path style="isolation:auto;mix-blend-mode:normal;solid-color:#000;solid-opacity:1;marker:none" d="M314.475 47.344a39.155 39.134 0 0 0-39.155 39.135 39.155 39.134 0 0 0 39.155 39.132 39.155 39.134 0 0 0 39.154-39.132 39.155 39.134 0 0 0-39.154-39.135zm-.004 9.394a29.752 29.736 0 0 1 29.752 29.737 29.752 29.736 0 0 1-29.752 29.736 29.752 29.736 0 0 1-29.752-29.736 29.752 29.736 0 0 1 29.752-29.737Z" transform="translate(-374.786 -47.423)" color="#000" overflow="visible" fill="#fff" />
    <path style="line-height:125%;-inkscape-font-specification:'Montserrat Bold';text-align:end" d="M-266.663 2.918v72.68h54.19l-5.768-14.348h-32.201V46.172h26.14l-5.558-13.828h-20.582V17.372h40.183V2.918Z" font-weight="700" font-family="Montserrat" letter-spacing="-10" word-spacing="0" text-anchor="end" fill="#fff" />
    <path style="line-height:125%;-inkscape-font-specification:'Montserrat Bold';text-align:end" d="m-188.805 49.188 18.507-46.269h17.572l-29.217 72.68h-13.725l-29.217-72.68h17.572z" font-weight="700" font-family="Montserrat" letter-spacing="-10" word-spacing="0" text-anchor="end" fill="#fff" />
    <ellipse style="isolation:auto;mix-blend-mode:normal;solid-color:#000;solid-opacity:1;marker:none" cx="-60.314" cy="39.052" rx="22.62" ry="22.608" color="#000" overflow="visible" fill="#8e83e4" stroke="#8e83e4" stroke-width="6" />
    <path style="isolation:auto;mix-blend-mode:normal;solid-color:#000;solid-opacity:1;marker:none" d="M314.47 63.867a22.62 22.608 0 0 0-21.845 16.852l7.03 1.883a21.568 21.557 0 0 1 19.695-12.807 21.568 21.557 0 0 1 15.19 6.27 22.62 22.608 0 0 0-20.07-12.198zM291.983 84.1a22.62 22.608 0 0 0-.132 2.375 22.62 22.608 0 0 0 .81 5.984l5.295 1.418a21.568 21.557 0 0 1-.176-2.525 21.568 21.557 0 0 1 .744-5.5z" transform="translate(-374.786 -47.423)" color="#000" overflow="visible" fill="#fff" stroke="#8e83e4" stroke-width=".5" />
    <path style="line-height:125%;-inkscape-font-specification:'Montserrat Bold';text-align:end" d="M-310.993 2.92c12.962 0 22.91 3.188 29.84 9.565 6.933 6.308 10.399 15.111 10.399 26.41 0 11.298-3.397 20.24-10.19 26.825-6.724 6.586-17.017 9.878-30.881 9.878h-20.85V2.92Zm.832 58.33c7.417 0 13.1-1.872 17.052-5.615 4.02-3.743 6.03-9.185 6.03-16.324 0-7.14-2.01-12.616-6.03-16.429-3.951-3.881-10.051-5.822-18.3-5.822h-5.045v44.19z" font-weight="700" font-family="Montserrat" letter-spacing="-10" word-spacing="0" text-anchor="end" fill="#fff" />
    <path d="M38.259 2.92h12.269v72.678H37.22L-3.955 22.571v53.027h-12.27V2.92h12.27l42.214 54.276Zm21.037 0v72.678h12.27V45.653h24.769l4.557-11.332H71.566V14.356h37.35l4.599-11.436z" style="line-height:125%;-inkscape-font-specification:Montserrat;text-align:center" font-weight="400" font-family="Montserrat" letter-spacing="0" word-spacing="0" text-anchor="middle" fill="#fff" />
    <path style="line-height:125%;-inkscape-font-specification:Montserrat;text-align:start" d="M507.895 81.508c-12.224 0-21.73 9.034-21.73 20.785 0 11.87 9.39 21.023 21.495 21.023 5.846 0 11.81-2.657 16.002-6.79l-4.133-4.608c-3.13 3.012-7.382 4.902-11.515 4.902-8.268 0-14.764-6.437-14.764-14.586 0-8.149 6.496-14.527 14.764-14.527 4.192 0 8.504 2.008 11.515 5.256l4.075-5.078c-4.016-3.957-9.863-6.377-15.71-6.377zm20.388.176v6.26h24.447l-25.214 30.058v5.018h34.9v-6.258h-25.451l25.156-30.059v-5.02zm-50.607 34.074c-2.126 0-3.72 1.594-3.72 3.838 0 2.303 1.594 3.957 3.72 3.957 2.126 0 3.72-1.654 3.72-3.957 0-2.244-1.594-3.838-3.72-3.838z" transform="translate(-374.786 -47.423)" font-weight="400" font-family="Montserrat" letter-spacing="0" word-spacing="0" fill="#fff" />
    <path style="line-height:normal;text-indent:0;text-align:start;text-decoration-line:none;text-decoration-style:solid;text-decoration-color:#000;text-transform:none;white-space:normal;isolation:auto;mix-blend-mode:normal;solid-color:#000;solid-opacity:1;marker:none" d="M-121.645 1.15c-20.722-.002-37.643 16.92-37.643 37.641 0 20.722 16.92 37.66 37.643 37.643h1c9.177.002 17.605-3.324 24.152-8.822a46.244 46.244 0 0 1-6.26-10.471c-4.664 4.8-11.157 7.812-18.392 7.945a26.214 26.214 0 0 1-25.809-26.295 26.216 26.216 0 0 1 25.809-26.296c7.32.134 13.879 3.218 18.554 8.117a46.27 46.27 0 0 1 6.344-10.426c-6.581-5.624-15.104-9.053-24.398-9.035h-1z" color="#000" font-weight="400" font-family="sans-serif" overflow="visible" fill="#fff" />
    <path d="M-82.137 163.192c-2.093.123-3.72 4.115-3.719 6.191.001 2.54 11.057 9.2 25.07 9.2s25.069-6.66 25.07-9.2c0-2.143-1.732-6.327-3.923-6.19-.405.025-.827.199-1.256.56-2.745 2.318-12.392 7.174-19.891 7.174-7.499 0-17.146-4.856-19.891-7.173-.429-.362-.85-.536-1.256-.561a1.499 1.499 0 0 0-.204-.001z" style="isolation:auto;mix-blend-mode:normal;solid-color:#000;solid-opacity:1;marker:none" color="#000" overflow="visible" transform="translate(.475 -97.022)" fill="#fff" />
  </g>
</svg>
