<svg xmlns="http://www.w3.org/2000/svg" viewBox="0 0 350 261.152"><path d="M16.492 228.232c.153-.153 0-.306-.153-.306s-.46.153-.46.306c0 .306.154.459.307.459 0 0 .153-.153.306-.459zm.612 0c-.306.612-.153.918.153 1.224.153.153.153.306 0 .306-.306 0-.612-.153-.765-.153-.306-.612-1.377-.153-1.377.306 0 .306.306.918.765 1.07.459.613.459.613.153-.152-.46-.918-.46-.918.306-.765.612.153.612.459.612 1.53-.153.612-.306 1.989-.46 2.907-.152 1.377 0 1.836.46 1.836.306 0 .612-1.377 1.07-6.732.154-2.142-.152-2.754-.917-1.377zm1.836 7.19c-.153.154-.306.46-.306.613a.33.33 0 0 0 .306.306c.306 0 .459-.153.459-.46 0-.305-.153-.611-.46-.458zm55.995 17.9c.153.307.306.307.459.307 0 0 .153 0 .153-.306s-.153-.46-.46-.46c-.305 0-.305.154-.152.46zm-55.536-22.03c-.153 0-.46.612-.46 1.07 0 .46.307.919.46.919.153 0 .459-.46.459-.918 0-.46-.306-1.071-.46-1.071zm55.383 11.627c-3.978-4.896-5.355-6.425-11.78-14.228-3.06-3.825-7.344-8.874-9.18-11.168-1.836-2.295-4.59-5.508-5.814-7.344-1.377-1.683-3.519-4.59-4.743-6.273-2.6-3.519-2.753-3.213 1.071-5.202 1.836-.917 7.956-4.895 10.71-6.884 13.922-9.639 20.348-18.665 19.889-27.845-.153-3.213-.918-5.813-2.907-8.72-1.683-2.601-11.627-13.005-14.993-15.605-3.06-2.448-7.344-4.284-10.863-4.896-5.201-.765-17.135.306-24.784 2.448-9.18 2.448-20.042 8.414-21.266 11.474-.306 1.377-.306 1.377 3.366 4.896 1.988 1.989 4.13 3.672 4.436 3.825.918.306 2.907 2.295 2.907 2.754 0 .152.612.611 1.071 1.07l1.224.918-1.836 9.027c-1.07 4.896-2.448 13.004-3.366 17.9-.612 4.743-1.377 9.027-1.683 9.333-.153.611-1.07 1.07-2.906 1.835-2.295.612-2.754.918-2.754 1.683 0 .918 2.907 3.978 3.672 3.978.305 0 .458.46.611.918.306.612-.306 5.967-1.223 12.698a95.579 95.579 0 0 1-.612 4.284c-.153 1.836-.46 3.672-1.224 10.557-.153 1.53-.153 1.53 1.683 2.142 1.07.458 2.141.611 2.906.458.765-.152 1.683-.305 2.448-.305 1.071 0 1.224-.153 1.224-1.224 0-.765.153-1.836.306-2.601.153-.918.153-1.071-.612-.918-.918.306-.918-.306-.153-1.071.918-.918 1.53-.765 1.836.459.46 1.377.306 1.989-.306 2.448-.306.153-.306.765-.459 1.224-.153.918 0 1.07.612.918.306 0 .765 0 .765-.153s.153-.765.153-1.53c0-.612.306-1.53.306-1.99.306-.611.306-.917-.306-.917-.306 0-.612-.306-.612-.765.153-.612.153-.765.306-.306.306 1.07.765.918 1.071 0 .153-.612-.153-.918-1.07-.765-.307 0-.154-.153.305-.612.46-.306.612-.612.306-.612s-.459-.306-.459-.918c0-.612.153-.765.46-.765.152.153.152.612 0 .918-.154.459 0 .459.305.153.153-.153.459-1.071.765-2.142.306-1.53.306-1.989-.306-2.295-.459-.612-.459-.612 0-.612a1.15 1.15 0 0 0 1.071-.765c.459-.765.459-.918 0-.612-.306.153-.306.153-.306-.306.153-.306.459-.765.459-1.07.306-.307.459-.766.612-.766.153 0 .459-.153.459-.459 0-.153-.306-.306-.612 0-.459.306 0-1.376.612-1.988.612-.765 0-1.53-.612-1.071-.306.153-.306 0 0-.306s.306-.765.306-1.071c-.153-.306 0-.46.306-.46.459 0 .765-.152.765-.458 0-.153.306-.306.612-.306.918 0 .918 1.224.306 2.6-.765 1.072-.918 3.672-.612 5.05.306.764.153 1.376-.46 2.294-.305.612-.611 1.071-.305 1.071.306-.153.306.306.153 1.683s-.153 1.836.306 1.836c.153 0 .306-.306.306-.765-.153-.459 0-.918.306-1.07.306 0 .459.152.306.917-.153.459 0 .612 0 .306.306-.306.612-.306 1.07-.306.613.306 1.225-1.224.613-1.53-.306-.153-.306-.459 0-.612.306-.153.612-1.07.612-2.295.306-2.142.765-5.507 1.07-6.12.154-.152 0-.764-.152-1.223-.153-.46-.153-.765 0-.765s.459-.306.459-.765c0-.306.153-.765.306-.765.306 0 .459.765.306 1.989 0 1.07-.153 1.836-.306 1.836-.306 0-.306.306-.153.459.153.153-.153 1.835-.46 3.671-.611 3.825-.764 7.344-.305 7.803.153 0 .153 0 .153-.153 0-.459 1.53-10.098 1.836-11.168 0-.612.306-1.683.306-2.448.765-3.978.765-4.284 1.682-5.202 1.377-.765 1.683-.612 3.06 1.53.918 1.377 1.683 2.754 7.19 9.944 5.509 7.497 8.262 11.169 10.863 14.076 1.377 1.683 3.366 4.13 4.284 5.201 1.071 1.224 4.13 4.743 7.038 7.956 2.907 3.366 6.578 7.497 8.108 9.332 1.53 1.99 3.06 3.52 3.366 3.52.46.152.918.152.918.305.46.306 3.672-2.142 3.672-2.754 0-.153.306-.459.612-.459s.612-.153.612-.306.459-.612 1.07-1.07c.613-.307 1.378-.918 1.378-1.224.153-.306.153-.46 0-.306-.306.306-2.142-1.99-1.836-2.448 0-.306 0-.306-.46-.153-.458.153-.611.153-.458-.46.153-.611 0-.917-.153-.917-.306.153-.612-.306-.612-.765-.153-.46-.765-1.377-1.53-2.295-1.53-1.683-2.295-2.754-1.683-2.754.306 0 .46.153.612.459 0 0 .765 1.224 1.836 2.295 2.907 3.519 4.59 5.355 4.59 5.814 0 .612.765.306.765-.46 0-.305 0-.305.153-.152.153.306.459.459.765.306.306-.153.918 0 1.07.153.613.612.613.459.613-.306 0-.612-.306-1.377-.612-1.99-1.071-1.53-4.437-5.507-5.05-5.966-.305-.306-.458-.459-.305-.459.306 0 0-.612-.46-1.224.154.306.766.918 1.378 1.53 1.377 1.377 2.448 2.754 2.448 2.907 0 .765 3.824 4.59 3.977 4.13.306-.458-2.141-3.671-6.731-9.332zm-63.645-83.84c-.153 0-.306-.152-.306-.458-.153-.153-.153-.306 0-.306.306 0 .46.153.46.306 0 .306-.154.459-.154.459zm-1.53 67.317c-.153.153-.306.306-.459.306 0 0-.153-.153-.153-.306s.153-.459.306-.459c.306 0 .306.306.306.459zm1.836 2.907c-.459 1.07-.918.612-.765-.612.153-.765.153-1.377.153-1.53 0-.306.306-.459.46-.459.305 0 .458 1.53.152 2.6zm0-4.13c-.306 0-.459 0-.306-.307 0-.306.306-.459.46-.459.305 0 .458.153.458.46 0 .305-.306.305-.612.305zm6.579-4.285c-.153.306-.306.46-.46.46 0 0-.152-.154-.152-.46 0-.153.153-.306.459-.306.153 0 .306.153.153.306zm.765-3.671c-.306 1.53-.918 2.294-.918 1.223 0-.306.306-1.07.612-1.53.459-.611.459-.611.306.307zm.153-2.601c-.306.306-.306.153-.306-.765s0-1.071.306-.306c.459.306.306.612 0 1.07zm1.683-33.506c.459-.306.918-.459.918-.306.306.153 0 .306-.306.612-.918.612-1.377.46-.612-.306zm.612 5.202a.33.33 0 0 1-.306-.306c0-.306.153-.306.306-.306l.459.46c0 .152-.153.152-.46.152zm.612 25.244c0 .306-.153 0-.153-.46 0-.458.153-.611.306-.152 0 .153 0 .612-.153.612zm.765-31.364c-.306.918-.612 1.071-.612.306 0-.459.306-.765.459-.765.153-.305.153 0 .153.46zm1.988 27.539c-.306 0-.612-.153-.459-.306.153-.153 1.071 0 1.071.306H24.6zm21.572-17.441c-.153.306-.306.612-.459.612-.306 0-.459 0-.306-.46.306-.764.918-.917.765-.152zm-12.698-6.273c-5.202 3.366-5.967 3.825-5.967 3.366 0-.153 1.836-9.026 3.366-16.676 1.683-7.344 3.519-17.288 3.519-18.36 0-1.376.765-1.682 6.273-2.6 6.272-1.07 11.78-1.377 15.758-.765 4.284.765 4.896 1.224 4.896 4.13 0 9.64-7.956 18.513-27.845 30.905zm29.527 54.312c-.306 0-.612-.306-.612-.765 0-.306-.306-1.07-.764-1.53l-.918-1.07 1.07 1.07c.612.46 1.224 1.224 1.53 1.683.46.765.306.918-.306.612zm5.967 6.273c-.306.306-1.836-1.07-1.836-1.683 0-.153-.459-.612-.765-.918-.459-.459-1.224-1.377-1.53-2.142-.765-1.224-.612-1.07 1.071.765 1.071 1.071 2.295 2.448 2.601 2.907.306.46.46 1.071.46 1.071zm.918-5.508c-.153 0-.765-.459-1.224-1.07-.459-.46-.918-.919-.612-.919 0 0 .612.46 1.071.918.612.612.918 1.071.765 1.071zm7.344 12.852c.153.306 0 .612-.153.612-.306 0-.765-.46-.765-.765 0-.612.765-.46.918.153zm-5.814-10.71c-.612-.612-.918-1.07-.612-1.07.153.152.612.458.918 1.07.918 1.224.765 1.224-.306 0z"/><path d="M79.709 240.624c.153-.306.306-.765.153-1.224 0-.306 0-.918.153-1.53.153-.459.153-.765 0-.765s-.306.46-.306.765c-.153.306-.153 1.224-.306 1.836 0 .612 0 .918.306.918zm12.086-13.616c.153 0 .306 0 .306-.153s-.153-.306-.306-.459c-.306 0-.459 0-.459.153s.153.459.459.459zm-8.72 18.971s-.154.306-.307.459c0 .306 0 .459.153.306.153 0 .46 0 .46-.306s-.154-.459-.307-.459zm30.75-105.717c0-2.295-.764-4.131-1.53-4.284-4.13-1.53-4.13-1.53-4.589-.612-.459.765-.459.765-1.836-.153-1.07-.765-1.53-.918-1.683-.612-.153.306-.765.306-1.989-.46-1.988-.917-4.59-1.376-6.425-.917-1.224.153-1.377.306-1.836 2.295-.612 2.754-2.754 15.911-4.743 29.221-1.07 6.273-1.989 12.852-2.295 14.535-.306 2.753-1.989 15.758-2.6 19.582 0 .765-.46 4.59-.919 8.415-.459 4.896-.612 7.19-.459 7.19.153 0 .46.307.46.613 0 0-.307.153-.46 0-.459 0-.611 1.377-1.07 5.048-.306 3.06-.765 5.967-.765 6.579-.153.612 0 1.224 0 1.224.306 0 .459.612.612 1.224 0 .612-.153 1.224-.306 1.224-.306 0-.306-.153-.306-.306a.975.975 0 0 0 0-.918c-.765-.918-.918 3.06-.46 4.743.46 1.377.46 2.754 0 3.977 0 .306-.305 1.377-.305 2.448-.153 1.53-.153 1.99.306 1.683.459-.153.459-.153 0 .153-.306.306-.306.765 0 1.377s.306.765-.153.46c-.765-.154-1.071.152-.612.764.306.46.306.612-.153.612-.46 0-.612.153-.153.612.612.612 1.683.612 1.989.153.306-.306 1.07-.459 2.141-.459 1.377.153 1.53.153 1.377-.459-.306-.459-.153-.765.153-.765s.46-.306.306-.765c-.153-.459-.153-.918.153-1.07.153-.154.153-.307 0-.613 0-.153 0-.612.306-.765.153-.459.46-1.224.46-1.989.152-.612.152-1.836.305-2.6.153-.612.153-1.53.153-2.142.153-1.683.918-1.377.918.153.153 1.377.612 1.683 1.224.918 0-.306.153-1.377.153-2.601 0-1.53-.153-1.99-.612-1.683-.306.153-.765.459-.765.918 0 .306 0 .153-.153-.46.153-.611.46-.917 1.224-1.223.765-.153.918-.306.612-.46-.153-.305-.612-.152-.918-.152-.459.306-.459.153-.153-.46.153-.611.46-.764.918-.458.612.612.765.153 1.071-2.754.153-3.213.612-5.66 1.071-5.814.153 0 .306-.459.153-.918-.153-.306-.153-1.07.153-1.53.153-.305.306-1.53.306-2.447 0-1.071.153-2.448.306-3.213.306-1.683.306-1.683.918-.918.612.459.612.918.306.918-.153 0-.306.306-.306.612a.841.841 0 0 1-.46.765c-.764.153.154 1.07 1.225 1.07.612 0 .765-.152.612-.305-.306 0-.612-.612-.612-.918 0-.765 0-.765.306-.306.153.612.918.918.765.306-.153-.612.153-1.224.459-.918.306 0 .306-.153.153-1.071-.153-.918-.153-1.224.153-1.071.153.153.459 0 .459-.306-.153-.306-.306-.612-.46-.612-.305 0-.305-.153-.305-.459.153-.153.459-.306.765 0 .153.153.306-.306.153-1.224-.153-.918 0-1.53.306-1.683.459-.153.459-.306.306-.765-.612-.459-.765-2.295-.306-1.989.153.153.459 0 .612-.459.153-.306 0-.459-.306-.306-.765.306-.765-.153 0-1.07.306-.46.306-.919.153-1.225-.153-.153 0-.306.306 0 .459.306.459 0 .306-.612-.153-.459-.153-.918.153-.918s.306-.305.306-.764c-.153-.46-.153-.765 0-.765.459.153.459-.153.459-.765s.153-1.224.459-1.53c.459-.46.459-.306.306.612-.46 4.742-.46 5.354-.153 5.048.153-.153.459 0 .306.306 0 .46-.153.918-.153 1.071 0 .153-.153.306-.46.306-.305 0-.611.612-.611 1.377.153.612.153.918.306.306 0-.459.306-.918.612-.918.459 0 .459.306.153 1.071-.306.46-.612.918-.918.918-.153 0-.153.153.153.46.459.611.765 3.059.153 3.059-.153 0-.306-.153-.306-.459 0-.306-.153-.306-.612 0-.153.306-.153.765.306 1.53.612.765.612.918.153.918-.306 0-.612.306-.612.459 0 .153.306.306.612.153.612-.306.612 0 .153 1.07-.306.613-.306.766.153.766.306 0 .612-.306.612-.46 0-.305 0-.458.153-.305.153.153.153.765.153 1.377-.306.765-.46.918-.918.306-.306-.46-.306-.46-.765.306-.306.459-.306.765 0 .612.153-.153.306 0 .306.459s-.153.765-.306.918c-.153 0-.153.612-.306 1.07 0 .765.153 1.224.306 1.224s.459-.612.459-1.223c0-.46.153-1.377.306-1.836.612-.612.765-.612.612 1.683 0 1.682.153 2.447.459 2.447.153-.153.306-.765.306-1.53.153-.611.306-1.223.459-1.223.153 0 .153-.765 0-1.683-.153-1.53 0-1.836.612-1.836.305 0 .458-.153.305-.306-.153-.306 0-.612.153-.765.306 0 .306-.46.306-.612-.306-.153-.153-.306 0-.306s.306-.306.306-.612-.153-.612-.306-.612c0 0-.153-.306 0-.765 0-.459.306-.765.918-.765.765 0 .918.153.765.612-.153.306 0 .612.306.765.306.153.46-.46.306-1.071 0 0 .153-.612.46-1.377.152-.918.764-4.437 1.07-6.732 0-.306.153-.918.306-1.377 0-.306.306-1.682.612-3.365.612-4.743 1.53-11.322 1.99-14.535.611-3.212 1.529-9.791 3.059-20.807 1.07-6.731 2.142-18.053 1.989-20.5zm-32.127 92.407c-.46 1.377-.46 1.377-.765.612-.153-.306.153-.765.306-1.071.612-.612.612-.612.459.459zm1.223-9.792c0 .306-.306.46-.459.46-.152 0-.458-.154-.458-.46 0-.153.306-.306.611-.306.306-.153.46 0 .306.306zm0-2.448s-.306 0-.306-.306c-.153-.153-.153-.306.153-.459.153 0 .306.306.306.46 0 .152 0 .305-.153.305zm4.131-2.906c0 .458-.306.458-.306.458-.153 0-.306 0-.306-.458 0-.153.306-.306.46-.306.152 0 .305.153.152.306zm1.836 2.447c-.459-.612-.306-.612 0-.612s.612.153.612.46c.306.458-.153.611-.612.152zm1.683-11.015c-.306 0-.306-.153-.306-.459.153-.153.306-.459.46-.459.152 0 .152.306.152.459 0 .306-.153.459-.306.459zm1.071-4.284c-.612.918-.765.918-1.07.153-.154-.153-.154-.306 0-.153.305.153.611 0 1.07-.153.459-.459.459-.459 0 .153zm2.142.153c-.153.612-.306.612-.306-.306 0-.306.153-.765.306-.765h.612c.153 0 .306.153.306.153a.33.33 0 0 1-.306.306c-.153 0-.46.153-.612.612zm.765 1.377c-.153-.153 0-.459.306-.612.459-.306.612-.153.612.153 0 .765-.612.918-.918.46zm5.049-13.616c.153-1.071.306-2.295.306-2.907 0-.612 0-1.071.306-1.071.153 0 .153 1.224 0 2.448 0 1.377-.306 2.754-.612 2.907-.153.306-.153-.153 0-1.377zm1.07 16.064c0 .306-.305.459-.611.459-.46 0-.46-.306.306-.459.306-.306.459-.153.306 0zm.307-2.295c0 .306-.306.46-.46.46-.611 0-.611-.46.154-.613.306-.153.459 0 .306.153zm-.306-18.053c-.153 0-.306-.153-.46-.459-.152-.153-.152-.306.154-.306.153 0 .459.153.459.306 0 .306 0 .459-.153.459zm.153-1.989c-.153 0-.306-.459-.306-.918 0-.612.153-.918.306-.765.153 0 .306.46.306.918 0 .306 0 .612-.306.765zm3.06 14.075c.458-.153.611.153.611.306-.153.306-.459.46-.612.46-.306 0-.459-.154-.459-.46 0-.153.306-.306.46-.306zm-2.449-20.348c.153-.458.306-.611.306-.611 0 .152.153.611.306.917 0 .918-.459 1.377-.764.765-.153-.153-.153-.765.153-1.07zm-.152 3.06c-.153-.306 0-.306.458-.153.306.153.46.306.46.46 0 .305-.766 0-.918-.307zm2.6 19.583c-.306.153-.459.46-.306.46.765 0 .765 3.977.153 4.589-.459.612-1.683.612-1.683.153 0-.153.153-.459.46-.765.458-.612.611-2.448 0-2.448-.307 0-.307-.153 0-.306.152-.153.458-.459.305-.765.153-1.07.306-1.224.918-1.224.612 0 .612 0 .153.306zm.153-.765c-.306 0-.612 0-.612-.153 0 0 .306-.306.612-.306.306-.153.612-.306.612 0s-.306.46-.612.46zm.612-2.907c-.306 0-.459-.153-.459-.611 0-.46.153-.918.46-.918.305 0 .305 0-.154-.306-.459-.306-.459-.306 0-.306.306.153.612.612.612 1.224 0 .611-.153.917-.459.917zm.765-3.518c0 .306-.306.765-.612.918-.765.153-.765 0-.306-.765.612-1.071 1.224-1.071.918-.153zm1.683-13.617c-.153 0-.306-.306-.459-.612-.153-.306 0-.612.153-.612s.306.306.306.612v.612zm-3.366 29.069c-.306 0-.459.153-.306.306.153.153 0 .612-.306 1.224-.459.612-.459 1.224-.306 1.53.153.306.306.918.153 1.224 0 .459.153.612.306.306.306-.306.612-1.377.612-2.448.153-1.683.153-2.142-.153-2.142zM91.49 228.232c0 .459 0 .612.612.306.306 0 .612-.306.459-.612-.153-.918-1.071-.612-1.071.306zm7.344-6.732c0 .46.153.918.459 1.224.459.46.459-.612 0-1.377-.46-.612-.46-.612-.46.153zm-7.191 2.448c0 .153.306.306.765.153.459 0 .612-.153.612-.612-.153-1.07-1.377-.612-1.377.46zm-.306 5.66c-.306 0-.153.154.306.154.459 0 .612-.153.459-.153-.153-.153-.459-.306-.765 0zm11.321-12.391c0 1.07.153 1.07.46.153.152-.306.152-.46-.154-.612-.153-.153-.306.153-.306.459zm-5.966 9.791c-.153.459-.306 1.071-.306 1.53 0 .306.153.612.306.612s.306-.46.306-1.377c0-1.224 0-1.224-.306-.765zm1.224 6.885c-.306.153-.612.306-.765.153-.306-.153-.306 0-.153.153.306.765.918.765 1.224-.153.306-.46.153-.612-.306-.153zm-.153-11.322c.153-.612.306-1.683.306-2.448l-.153-1.377-.306 1.53c-.306.918-.46 1.99-.306 2.448.306.765.306.612.459-.153zm1.53 1.377c-.153 0-.306-.306-.46-.612 0-.306-.152 0-.152.918s0 1.836-.153 1.99c-.153.305-.306 1.376-.46 2.294l-.152 1.683.612-1.377c.306-.765.459-1.53.306-1.683 0-.153.153-.918.306-1.683.306-.765.459-1.53.153-1.53zm2.753-2.754c-.306 0-.459.153-.459.306 0 .306.153.46.153.46.153 0 .306-.154.46-.46 0-.153 0-.306-.154-.306zm-5.354 3.672c0 .153.153.46.306.46.306 0 .459 0 .459-.154 0-.153-.153-.306-.46-.459-.152-.153-.305 0-.305.153zm-3.825-5.049c-.306 0-.459.306-.306.306 0 .306 0 .612-.153.612-.153.306-.306.612-.153.918.153.46.306.46.918.153.765-.459.765-.459.459-1.377-.153-.306-.46-.612-.765-.612zm-4.896 17.135c-.153.153-.306.46 0 .765.153.306.306.306.612 0 .306-.765 0-1.376-.612-.765zm-.918 4.59c.306.46.306.918 0 .918-.153 0-.306.153-.306.46 0 1.07.765.764.918-.307.153-.612 0-1.224-.306-1.53-.306-.306-.459-.306-.306.46zm6.732-26.467c-.765 0-.918.459-.765 2.142 0 .153-.306.611-.612.917-.153.306-.459.918-.459 1.071 0 .306.306.306.459.306.306 0 .612-.306.612-.612s.153-.306.306.153c.612.765.918 0 1.07-2.141 0-1.53 0-1.836-.611-1.836zm-6.885 29.221c-.459-.153-.765.612-.765 1.377 0 .153 0 .306.306.306.765 0 1.071-1.53.46-1.683zm.918-5.814c-.153 0-.459.153-.459.46 0 .305.306.305.46.305.152 0 .458 0 .458-.306s-.306-.459-.459-.459zM199.559 156.632c-5.355-8.109-10.557-12.24-17.135-13.464-3.978-1.07-7.65-2.141-11.169-3.824-3.366-1.683-3.672-1.683-7.802-1.683-6.12 0-10.404 1.683-16.982 6.425-14.229 10.25-25.091 33.965-25.397 54.924-.153 3.978.153 7.191.612 8.721.153.459.306 1.377.306 2.142.765 4.437 4.896 12.24 8.414 15.758 3.825 3.519 5.967 4.437 18.206 6.885 2.907.459 6.426 1.224 7.65 1.53 3.825.765 9.639.153 14.228-1.683 1.224-.46 1.836-.918 1.836-1.377 0-.612 0-.765.46-.306.611.459 2.141 0 5.66-2.142 9.944-6.12 19.889-19.889 24.938-35.188 4.895-14.534 3.824-25.09-3.825-36.718zm-65.48 41.155c-.154.153-.307 0-.307-.306s.153-.612.306-.612c.306 0 .46.153.46.306 0 .306-.154.612-.46.612zm.611-3.672c-.306 0-.459-.153-.306-.46.153-.305.918-.152.918.307 0 .153-.306.153-.612.153zm4.13 1.224c-.305 0-.305-.153-.305-.46.153-.305.306-.458.459-.458.153 0 .153.153.153.459 0 .306-.153.459-.306.459zm48.805-22.184c0 6.731-1.836 13.463-6.12 22.796-4.742 10.097-9.79 16.829-16.675 22.336-2.754 2.142-8.109 5.661-8.568 5.661-.153 0-.765.306-1.53.612-.612.306-2.295.918-3.519 1.377-1.377.612-2.448.765-2.754.765-.459 0-3.824-4.437-4.895-6.885-5.508-10.862-4.284-27.997 2.907-44.214 2.294-5.049 3.824-7.803 7.343-12.393 6.426-8.567 15.146-14.84 21.572-15.452l2.142-.153 1.683 2.142c2.142 2.907 4.59 6.885 5.66 9.486.46 1.224.918 2.447 1.071 2.753 1.53 3.366 1.836 5.355 1.683 11.169zm6.885 25.702c-.153.306-.459.306-.765.306-.153 0-.153 0-.153-.306.153-.305.459-.458.612-.458.306 0 .306.153.306.458zm.612-1.376c-.306 0-.306 0-.306-.46.153-.764.612-1.223.612-.458 0 .459-.153.765-.306.918zm2.754-6.885c-.612.765-.612 0 0-1.071.153-.459.153-.612.306-.153 0 .459-.153.918-.306 1.224zm1.53-5.66c-.153 2.141-1.071 3.824-1.377 3.365-.153-.153 0-.459.153-.765.153 0 .306-.612.306-1.224s.306-1.377.765-2.142c.459-.765.459-.765.153.765zm.765-3.06c-.153.917-.306.764-.46-.613-.152-.918 0-1.835 0-1.988.307-.153.46-.612.613-1.224 0-.612.153-.153.153.918 0 1.07-.153 2.447-.306 2.906zm3.978 2.906c-.306 0-.306-.459-.153-.918s.306-.765.459-.765c.305 0 .305.306.152.765-.152.46-.305.918-.458.918zM282.844 143.321c-.306 0-.46 0-.46.306 0 0 .154.306.46.306.153 0 .306 0 .306-.153s-.153-.153-.306-.459zm-9.18 2.142c-.153 0-.612.153-.765.306 0 .306.153.46.612.46.46 0 .765-.154.765-.46 0-.153-.306-.306-.612-.306zm6.732-2.907c.153-.306-.153-.612-.918-.612-.612 0-.918.306-.918.612s-.306.612-.918.765c-.459 0-.765.306-.918.46-.153.152.612.458 1.836.305 2.448-.153 2.448-.153 1.989-.459-.153-.306-.306-.765-.153-1.07zm-3.06-3.518c0 .153.306.306.612.153.459-.153.918-.306 1.071-.306.306 0 .153-.153-.153-.306-.765-.46-1.53-.306-1.53.459zm.459 3.365c0-.459-2.6-.153-3.06.153-.153.153.612.153 1.377.153.918 0 1.683-.153 1.683-.306zm-3.06 1.224c-.459 0-.765-.306-.612-.612.153-.459 0-.612-.918-.612-.765 0-1.224.153-1.224.612 0 .306-.306.612-.612.612-.459 0-.459-.153-.153-.612.306-.306.306-.612.153-.612s-.765-.153-1.377-.153-1.07 0-1.07.153c0 .306-.46.306-1.071.306-.918 0-.918 0-.46-.306.46-.306.46-.459-.152-.459-.306 0-.765.306-.765.46-.306.305-.918.305-1.836.305-1.071-.306-1.683-.153-1.99.153-.152.306-.152.46-.152.153 0-.306-.612-.306-1.836-.306-1.683.306-3.06 0-2.142-.459.306-.153.612-.153.765 0 .306 0 .612 0 .918-.306a1.19 1.19 0 0 1 1.224-.306c1.07.46 1.683.46 1.683 0 0-.306-.153-.306-.46-.153-.458.153-.458 0-.458-.458.306-.612.459-.612 1.53-.153.459.153 1.07.153 1.53 0 .306-.306.612-.306.612 0 0 .153.306.153.918 0 .459-.306 1.07-.306 1.07-.153s.154 0 .46-.153c.306-.306.917-.306 1.07-.153.46 0 1.071 0 1.53-.46.612-.305 1.224-.305 1.683-.305.306.306.918.306 1.071.306.153-.153.918-.306 1.836-.306 1.071 0 1.53-.153 1.53-.612 0-.153-.153-.46-.459-.46-.306 0-.306-.305-.306-.458.306-.612 3.366-.612 3.978-.153.459.612.612.153.459-1.99 0-1.376-.153-2.447-.306-2.447s-.306-.153-.153-.46c0-.764-1.071-2.141-1.683-2.141-.306 0-.918 0-1.07.306-.307.459-.46.459-.46 0 0-.306-.918-.306-3.825-.306-5.813.459-13.769 1.071-16.982 1.377-1.683.306-3.825.612-5.049.612-1.07.306-4.742.612-7.955 1.07-3.366.307-6.579.919-7.344.919-5.813.765-24.478 3.978-28.456 4.896-2.142.612-3.978 1.682-3.978 2.6 0 .918 2.142 6.273 2.907 7.497.306.459.612 1.377.612 1.989 0 .765.153.918.765.765.612-.306.612-.153.153.153-.306.306-.46.765-.46 1.224 0 .612.154.612.919.459.612-.153.612-.153.153.153-1.071.765-.918 1.377.153 1.07.459 0 3.824-.611 7.802-1.223 6.885-1.071 20.195-3.06 22.184-3.519 1.224-.153 1.224-.153.918.918-.765 4.284-5.814 34.882-6.12 38.4-.153.613-.918 5.509-1.836 10.71-2.753 17.135-5.507 34.424-6.12 39.625-.458 3.366-.305 5.661.613 7.038.459.765 7.65 1.683 9.026 1.224 1.071-.153 1.377-.153 1.683.306.306.459.306.459.612.153.306-.46.306-.46.46 0 .305.918 1.07.918 1.835.306.459-.46.459-.46.153 0-.459.918.918.459 1.377-.612 1.07-1.224 1.683-4.284 2.907-11.475.459-3.671 1.07-7.65 1.377-9.026.153-1.377 1.53-10.098 2.754-19.43 1.53-9.18 2.906-18.665 3.212-20.96.306-2.295 1.071-7.956 1.836-12.698.612-4.743 1.836-12.699 2.601-17.747.612-4.896 1.224-9.027 1.377-9.18.306-.459 11.475-1.836 13.463-1.836.918-.153 1.683-.306 1.683-.612 0-.153-.918-.306-2.142-.153-1.988.153-3.06-.153-2.141-.612.459-.306 2.906-.612 5.201-.765.918-.153 1.683-.153 1.99-.153.764-.153.305-.765-.613-.765zm-4.896-5.201c4.59-.765 5.661-.765 5.661-.46 0 .766-.918 1.378-1.53.919-.306 0-1.377-.153-2.754 0-1.07.153-2.142.306-2.295.459-.152.306-.305.153-.458-.153-.153-.306.153-.612 1.376-.765zm-27.08 71.447c-.152.306-.305.765-.458 1.07-.153.613-.153 0-.153-.917 0-1.53.153-1.836.612-1.224.153.459.153.765 0 1.07zm3.367-24.173c-.153.153-.306 0-.306-.459s.153-.459.306-.153c.153.153.153.612 0 .612zm.306-3.06c-.153.153-.153-.153-.153-.459 0-.459 0-.612.306-.153 0 .153 0 .46-.153.612zm14.228-35.953c-.46 0-.612-.153-.306-.306s.612 0 .765 0c.153.153-.153.306-.46.306zm1.377 0c-.153 0-.46-.153-.46-.459 0-.153.307-.459.46-.459.153 0 .459.306.459.46 0 .305-.306.458-.46.458zm1.683-.459c-.153.306-.46.46-.612.46-.153 0-.306-.154-.306-.46 0-.153.306-.459.459-.459.459 0 .612.306.459.46zm2.142-.153c-1.377.46-1.53.46-1.377-.153 0-.612 1.224-.918 2.295-.459.612.153.306.306-.918.612zm3.06-2.142c-.306 0-.306-.153-.154-.306.153-.306.306-.459.46-.459 0 0 .152.153.152.46 0 .152-.153.305-.459.305zm3.977-.306c-.306 0-.459-.153-.306-.306.306-.153.612 0 .918 0 0 .153-.153.306-.612.306zM348.523 138.273c-2.601-1.99-2.754-1.99-3.366-1.071-.306.612-.459.765-.459 0-.153-.153-.306-.612-.612-.612-.153.153-.306-.306-.306-.918-.153-.918-.306-.918-.918-.765-.612.306-.918.153-1.224-.46-.612-.764-4.59-3.977-5.355-3.824-.306 0-.612-.153-.612-.459-.459-.765-1.835 1.224-3.212 4.59-.918 1.836-1.377 3.213-1.377 3.366-.153 0-1.683-.153-3.213-.46-11.016-2.141-23.867.766-34.27 7.65-5.967 4.131-13.77 11.628-16.83 16.83-1.835 2.906-2.141 3.977-2.294 6.425-.153 2.295.765 3.519 5.507 8.568a441.75 441.75 0 0 1 6.12 6.731c3.366 3.825 4.896 4.743 11.78 6.885 4.59 1.377 7.956 2.142 14.535 3.06 4.13.765 9.638 2.6 10.25 3.672 1.224 1.988-1.377 9.332-5.049 14.38-2.295 3.367-6.884 7.956-10.71 10.557-2.906 1.836-7.037 4.131-8.72 4.59-.459.306-1.683.612-2.6.918-.918.459-2.295.765-2.601 1.07-1.99.613-9.486 1.378-11.934 1.225-2.448 0-2.907-.306-6.272-3.519l-1.683-1.683-.612.918c-.918 1.377-.46 3.213.918 4.743.612.765 2.754 2.907 4.59 4.896 2.141 1.835 4.59 4.436 5.813 5.66 2.448 2.601 3.978 3.213 8.72 3.672 1.378 0 4.743-.153 7.497-.459 7.19-.918 11.78-2.448 17.9-6.579 10.557-7.037 18.818-20.194 17.747-28.762-.459-3.825-2.6-7.497-7.343-12.545-1.071-1.224-3.06-3.366-4.284-4.896-3.672-4.437-11.78-10.25-14.075-9.945-.306 0-.765-.153-.765-.306-.153-.612-3.06-1.377-9.333-2.447-5.048-.765-10.556-2.142-10.556-2.448-.153-1.224 6.731-9.639 10.862-13.158 3.825-3.365 5.508-4.436 9.027-6.272 4.743-2.601 9.18-4.131 13.157-4.743.765-.153 1.53-.46 1.53-.765 0 0 .306 0 .765.153.306 0 1.07.153 1.683.153.765-.153 1.07.612.459 1.377-.153.153-.46 1.836-.765 3.672-.153 2.142-.46 3.977-.612 4.59-.153.611-.459 1.835-.459 2.447.153 2.907.153 4.437.306 4.284.153-.306.765.153 1.53.612.765.459 1.53.918 1.836.918.153 0 .459.153.612.153.153.459 3.672 1.836 4.437 1.836.153 0 .764.153 1.07.153.612.306 1.224-.306 1.53-2.142l.46-1.53-.154 1.377c-.153 4.284.153 4.896.918 3.519.46-.765.46-.765.765 1.07.153.919 1.224 1.225 1.071.307 0-.918.918-.612 1.071.459.306 1.224.306 1.224.765.459.46-.918.918-4.437.612-4.896-.153-.153-.153-.459.153-.459 0 0 .765-2.448 1.377-5.355.765-4.437 3.978-15.605 6.12-21.878.918-2.906.765-3.518-.918-4.59zm-57.372 25.55c-.153.458-.46.764-.612.764-.153 0 0-.306.612-.765.459-.612.459-.612 0 0zm46.203 1.53c-.153 1.988-.459 2.294-1.07 1.988-.766-.612-.766-1.07 0-.918a.338.338 0 0 0 .458-.459c0-.306.153-1.07.306-1.377.306-.459.306-.306.306.765zm.46-3.367c-.154.765-.154.765-.307 0 0-.459 0-.918.306-1.224 0-.153.306-.153.306 0 0 .306-.153.765-.306 1.224zm.764-3.365c-.306.612-.306.612-.306 0 0-.306.153-.765.153-1.224.306-.46.46-.46.46-.153 0 .459 0 1.07-.307 1.377zm10.25-18.665c-.152 0-.305-.153-.305-.612.306-.306.306-.612.459-.612 0 0 .153.306.153.612.153.459 0 .612-.306.612z"/><path d="m301.874 1.288-9.234 9.234 44.214 44.214-44.214 44.205 9.234 9.236 44.427-44.415c4.931-4.927 4.932-13.12.002-18.047l-.002-.002zM154.133.04v96.944H138.43v-9.008a25.142 25.142 0 0 1-10.059 7.446 33.169 33.169 0 0 1-13.011 2.483 37.132 37.132 0 0 1-18.166-4.444 32.078 32.078 0 0 1-12.54-12.541 38.033 38.033 0 0 1-4.585-18.816 37.302 37.302 0 0 1 4.574-18.686 32.148 32.148 0 0 1 12.501-12.491 37.132 37.132 0 0 1 18.166-4.444 33.099 33.099 0 0 1 12.67 2.352 25.362 25.362 0 0 1 9.8 7.006V.04Zm-36.862 83.933a21.318 21.318 0 0 0 10.58-2.623 19.777 19.777 0 0 0 7.446-7.706 23.31 23.31 0 0 0 2.742-11.49 23.35 23.35 0 0 0-2.742-11.5 18.916 18.916 0 0 0-7.446-7.577 21.799 21.799 0 0 0-21.169 0 18.916 18.916 0 0 0-7.446 7.577 23.35 23.35 0 0 0-2.743 11.5 23.31 23.31 0 0 0 2.743 11.49 19.777 19.777 0 0 0 7.446 7.706 21.328 21.328 0 0 0 10.59 2.623zm58.2-56.71h16.335v69.72h-16.334Zm103.09 0-29.916 69.72H231.8l-29.925-69.77h17.014l21.659 51.755 22.34-51.744zM175.442 0h16.364v16.364h-16.364zM43.336 6.006A3.027 3.027 0 0 0 40.3 9.04v9.129L8.98 49.342H3.036A3.03 3.03 0 0 0 0 52.379v14.055a3.03 3.03 0 0 0 3.037 3.037h6.73l30.499 30.498v9.664a3.026 3.026 0 0 0 3.033 3.033h14.043a3.028 3.028 0 0 0 3.035-3.033V95.59a3.03 3.03 0 0 0-3.035-3.035h-8.799L20.129 64.14V53.898l27.9-27.765h9.364a3.027 3.027 0 0 0 3.035-3.035V9.04a3.027 3.027 0 0 0-3.035-3.035H43.336z"/></svg>
