<svg width="128" height="27" viewBox="0 0 128 27" fill="none" xmlns="http://www.w3.org/2000/svg">
<path d="M0 12.9975V9.16588L12.2924 3.41992V7.96265L5.65465 10.9724L12.2924 13.9825V18.7435L0 12.9975Z" fill="white"/>
<path d="M127.702 9.16588V12.9975L115.41 18.7431V14.201L122.048 11.1911L115.41 8.1809V3.41992L127.702 9.16588Z" fill="white"/>
<path d="M28.763 26.2688C23.8452 26.2688 21.1143 25.0645 21.1143 22.8752C21.1143 21.6708 22.0978 20.7409 23.7371 20.4122C22.6173 19.7828 21.9344 18.7979 21.9344 17.7307C21.9344 16.3077 22.8903 15.2408 24.6666 14.6114C24.0161 14.1889 23.4822 13.6088 23.1148 12.9249C22.7472 12.241 22.5576 11.4754 22.5635 10.6987C22.5523 10.0015 22.7046 9.31124 23.0083 8.68389C23.3122 8.05633 23.7585 7.50917 24.312 7.08615C25.4865 6.12812 27.0165 5.63574 28.8739 5.63574C30.8409 5.63574 32.507 6.21051 33.6823 7.30483C34.4473 6.31964 35.5944 5.85465 37.2609 5.85465V9.35785C36.5127 9.33267 35.7653 9.425 35.0458 9.63131C35.1298 9.98121 35.1755 10.3391 35.1823 10.6987C35.1964 11.4003 35.0454 12.0952 34.7417 12.7274C34.4378 13.3596 33.9897 13.9114 33.4336 14.338C32.2591 15.2955 30.7565 15.7612 28.8719 15.7612C28.2104 15.7561 27.5512 15.6828 26.9047 15.5423C26.2491 15.734 25.8938 15.9801 25.8938 16.3355C25.8938 16.8555 26.2217 17.0201 27.014 17.0201H32.3952C35.5365 17.0201 37.313 18.47 37.313 20.9611C37.313 24.271 34.0898 26.2688 28.763 26.2688ZM28.8177 23.286C31.7407 23.286 33.1337 22.821 33.1337 21.8628C33.1337 21.3428 32.6693 21.0419 31.9045 21.0419H27.8611C26.0307 21.0419 25.2658 21.3428 25.2658 22.1089C25.2664 22.903 26.4138 23.286 28.8177 23.286ZM28.8997 8.647C27.6156 8.647 26.878 9.38568 26.878 10.6994C26.878 11.9854 27.6703 12.7793 28.8997 12.7793C30.1289 12.7793 30.8939 12.013 30.8939 10.6994C30.8939 9.38568 30.1836 8.64612 28.8997 8.64612V8.647Z" fill="#73F9BC"/>
<path d="M40.1799 18.3335C38.8685 16.9927 38.2129 15.2142 38.2129 12.9704C38.2129 10.8361 38.8958 9.08504 40.2344 7.7157C41.5727 6.3203 43.2943 5.63574 45.3968 5.63574C47.3364 5.63574 48.9207 6.23769 50.096 7.46897C51.2983 8.70046 51.899 10.3152 51.899 12.3669C51.899 13.0236 51.8443 13.6258 51.817 14.091H42.7214C43.0218 15.8692 43.9779 16.7183 45.9174 16.7183C47.168 16.6704 48.3519 16.1409 49.2225 15.2405L51.6269 17.922C50.1787 19.5641 48.2388 20.3026 45.4806 20.3026C43.2676 20.3035 41.4914 19.6472 40.1799 18.3335ZM42.8028 11.3015H47.4194C47.3929 9.76916 46.6279 8.97459 45.3165 8.97459C44.0051 8.97459 43.1307 9.76916 42.8028 11.3015Z" fill="#73F9BC"/>
<path d="M55.6409 18.3335C54.3294 16.9927 53.6738 15.2142 53.6738 12.9704C53.6738 10.8361 54.3563 9.08504 55.6951 7.7157C57.0337 6.3203 58.755 5.63574 60.8577 5.63574C62.7974 5.63574 64.3816 6.23769 65.557 7.46897C66.7592 8.70046 67.3599 10.3152 67.3599 12.3669C67.3599 13.0236 67.3055 13.6258 67.2781 14.091H58.1812C58.4818 15.8692 59.438 16.7183 61.3775 16.7183C62.628 16.6704 63.812 16.1411 64.6828 15.2405L67.0869 17.922C65.639 19.5641 63.6991 20.3026 60.9408 20.3026C58.7277 20.3035 56.9521 19.6472 55.6409 18.3335ZM58.2637 11.3015H62.8805C62.8532 9.76894 62.0882 8.97526 60.777 8.97526C59.4658 8.97526 58.5912 9.76916 58.2633 11.3015H58.2637Z" fill="#73F9BC"/>
<path d="M78.778 11.4652L84.2687 19.9752H78.8044L75.4724 14.5025L74.462 15.5692V19.9752H69.8721V0H74.462V10.3709L78.5597 5.96508H84.077L78.778 11.4652Z" fill="#73F9BC"/>
<path d="M85.77 19.9752V0H90.3601V19.9752H85.77Z" fill="#73F9BC"/>
<path d="M94.7571 18.3335C93.4456 16.9927 92.79 15.2142 92.79 12.9704C92.79 10.8361 93.473 9.08504 94.8115 7.7157C96.1501 6.3203 97.8715 5.63574 99.9741 5.63574C101.914 5.63574 103.498 6.23769 104.673 7.46897C105.876 8.70046 106.476 10.3152 106.476 12.3669C106.476 13.0236 106.422 13.6258 106.395 14.091H97.2972C97.5978 15.8692 98.554 16.7183 100.493 16.7183C101.744 16.6704 102.928 16.1409 103.799 15.2405L106.203 17.922C104.755 19.5641 102.815 20.3026 100.057 20.3026C97.8437 20.3035 96.0685 19.6472 94.7571 18.3335ZM97.3799 11.3015H101.997C101.969 9.76894 101.204 8.97526 99.8932 8.97526C98.582 8.97526 97.7079 9.76916 97.3799 11.3015Z" fill="#73F9BC"/>
</svg>
