<svg class="landing-page__bg" width="661" height="573" viewBox="0 0 661 573" fill="none" xmlns="http://www.w3.org/2000/svg"><path opacity="0.5" d="M301.972 460.59H459.711L374.445 553H217.555L301.972 460.59Z" fill="#EFF1FF"></path><path opacity="0.4" d="M585.269 95.2073H660.886L620.011 140.163H544.801L585.269 95.2073Z" fill="#EBEEFF"></path><path opacity="0.5" d="M90.1233 373.915H177.864L130.436 426.012H43.1665L90.1233 373.915Z" fill="#F4F6FF"></path><path opacity="0.7" d="M245.223 357.66H464.593L346.012 485.785H127.822L245.223 357.66Z" fill="#EBEEFF"></path><path opacity="0.6" d="M532.162 232.02H654.938L588.571 304.449H466.456L532.162 232.02Z" fill="#EFF1FF"></path><path opacity="0.5" d="M536.924 369.634H612.541L571.666 414.59H496.456L536.924 369.634Z" fill="#F4F6FF"></path><path opacity="0.4" d="M113.243 107.654H188.86L147.985 152.61H72.7747L113.243 107.654Z" fill="#EBEEFF"></path><path opacity="0.5" d="M330.845 158.854H477.2L398.087 245.02H252.519L330.845 158.854Z" fill="#F4F6FF"></path><path opacity="0.5" d="M508.327 0H636L566.986 75H440L508.327 0Z" fill="#F4F6FF"></path><path opacity="0.5" d="M64.4925 502H185L119.859 573H0L64.4925 502Z" fill="#F4F6FF"></path><path opacity="0.7" d="M602.805 205.808H152.133L33.6135 333.933H484.286L602.805 205.808Z" fill="#EBEEFF"></path><path opacity="0.7" d="M293.465 53.9561H512.026L393.989 182.081H175.254L293.465 53.9561Z" fill="#E6EAFF"></path><path opacity="0.43" d="M273.266 9H374.089L319.589 67.6927H219.309L273.266 9Z" fill="#F4F6FF"></path></svg>
